G04 EAGLE Gerber RS-274X export*
G75*
%MOMM*%
%FSLAX34Y34*%
%LPD*%
%INTop Copper*%
%IPPOS*%
%AMOC8*
5,1,8,0,0,1.08239X$1,22.5*%
G01*
G04 Define Apertures*
%ADD10R,1.320000X2.810000*%
%ADD11R,0.920000X0.970000*%
%ADD12R,1.040000X0.970000*%
%ADD13C,0.395000*%
%ADD14R,0.890000X0.930000*%
%ADD15R,1.238000X1.238000*%
%ADD16C,1.238000*%
%ADD17R,0.870000X0.930000*%
%ADD18R,0.870000X0.980000*%
%ADD19R,0.810000X0.980000*%
%ADD20R,3.430000X1.780000*%
%ADD21C,0.330000*%
%ADD22R,2.184400X0.558800*%
%ADD23R,1.981200X0.558800*%
%ADD24R,0.860000X0.980000*%
%ADD25R,1.498600X0.330200*%
%ADD26R,1.020000X1.000000*%
%ADD27C,0.067500*%
%ADD28R,0.980000X0.810000*%
%ADD29R,0.930000X0.890000*%
%ADD30C,2.190000*%
%ADD31C,2.220000*%
%ADD32R,2.200000X2.800000*%
%ADD33R,2.800000X2.800000*%
%ADD34R,1.270000X3.680000*%
%ADD35C,1.388000*%
%ADD36R,0.980000X0.870000*%
%ADD37C,1.620009*%
%ADD38C,0.152400*%
%ADD39C,0.756400*%
G36*
X38100Y235128D02*
X33046Y237116D01*
X33046Y244992D01*
X38100Y246967D01*
X38100Y249359D01*
X20814Y242415D01*
X20814Y239753D01*
X38100Y232699D01*
X38100Y235128D01*
G37*
G36*
X38100Y231579D02*
X36186Y231579D01*
X36186Y220304D01*
X30163Y220304D01*
X30163Y230340D01*
X28273Y230340D01*
X28273Y220304D01*
X22728Y220304D01*
X22728Y231076D01*
X20814Y231076D01*
X20814Y217961D01*
X38100Y217961D01*
X38100Y231579D01*
G37*
G36*
X38100Y290493D02*
X36186Y290493D01*
X36186Y279391D01*
X22520Y289917D01*
X20814Y289917D01*
X20814Y277624D01*
X22728Y277624D01*
X22728Y287255D01*
X36346Y276729D01*
X38100Y276729D01*
X38100Y290493D01*
G37*
G36*
X34356Y263878D02*
X34870Y264023D01*
X35349Y264195D01*
X35792Y264395D01*
X36200Y264624D01*
X36572Y264880D01*
X36909Y265164D01*
X37211Y265476D01*
X37477Y265816D01*
X37707Y266183D01*
X37902Y266579D01*
X38062Y267002D01*
X38186Y267454D01*
X38274Y267933D01*
X38328Y268440D01*
X38345Y268975D01*
X38323Y269551D01*
X38255Y270096D01*
X38143Y270610D01*
X37985Y271091D01*
X37782Y271542D01*
X37535Y271961D01*
X37242Y272349D01*
X36904Y272705D01*
X36527Y273024D01*
X36116Y273301D01*
X35672Y273535D01*
X35194Y273726D01*
X34683Y273875D01*
X34138Y273981D01*
X33559Y274045D01*
X32947Y274067D01*
X20814Y274067D01*
X20814Y268411D01*
X22728Y268411D01*
X22728Y271736D01*
X32997Y271736D01*
X33407Y271724D01*
X33792Y271690D01*
X34152Y271632D01*
X34486Y271552D01*
X34794Y271448D01*
X35077Y271322D01*
X35335Y271172D01*
X35567Y270999D01*
X35772Y270807D01*
X35950Y270598D01*
X36101Y270372D01*
X36225Y270128D01*
X36320Y269869D01*
X36389Y269592D01*
X36430Y269298D01*
X36444Y268988D01*
X36431Y268702D01*
X36394Y268429D01*
X36332Y268169D01*
X36244Y267920D01*
X36132Y267684D01*
X35995Y267460D01*
X35833Y267249D01*
X35646Y267049D01*
X35437Y266865D01*
X35209Y266697D01*
X34960Y266547D01*
X34693Y266414D01*
X34405Y266299D01*
X34098Y266200D01*
X33772Y266119D01*
X33426Y266055D01*
X33806Y263761D01*
X34356Y263878D01*
G37*
%LPC*%
G36*
X25538Y240035D02*
X24087Y240563D01*
X22924Y240943D01*
X22581Y241054D01*
X23599Y241385D01*
X24611Y241728D01*
X25513Y242072D01*
X31218Y244292D01*
X31218Y237827D01*
X25538Y240035D01*
G37*
%LPD*%
G36*
X41314Y253166D02*
X40911Y253396D01*
X40498Y253593D01*
X40077Y253757D01*
X39646Y253890D01*
X39183Y253992D01*
X38667Y254065D01*
X38098Y254109D01*
X37474Y254123D01*
X35413Y254123D01*
X35413Y251731D01*
X38100Y251731D01*
X38100Y252811D01*
X38488Y252793D01*
X38881Y252738D01*
X39277Y252648D01*
X39676Y252522D01*
X40080Y252360D01*
X40488Y252162D01*
X40899Y251928D01*
X41314Y251657D01*
X41314Y253166D01*
G37*
G36*
X38100Y491626D02*
X38083Y492243D01*
X38033Y492841D01*
X37950Y493421D01*
X37833Y493982D01*
X37683Y494525D01*
X37500Y495049D01*
X37283Y495555D01*
X37033Y496043D01*
X36751Y496508D01*
X36440Y496945D01*
X36100Y497356D01*
X35731Y497739D01*
X35332Y498095D01*
X34904Y498424D01*
X34446Y498725D01*
X33960Y498999D01*
X33448Y499244D01*
X32915Y499456D01*
X32361Y499635D01*
X31787Y499782D01*
X31191Y499896D01*
X30575Y499977D01*
X29937Y500026D01*
X29279Y500042D01*
X28779Y500033D01*
X28293Y500005D01*
X27822Y499958D01*
X27365Y499893D01*
X26923Y499809D01*
X26495Y499707D01*
X26082Y499585D01*
X25683Y499446D01*
X25299Y499287D01*
X24929Y499110D01*
X24574Y498914D01*
X24234Y498700D01*
X23908Y498467D01*
X23596Y498215D01*
X23299Y497945D01*
X23016Y497656D01*
X22750Y497350D01*
X22500Y497028D01*
X22268Y496691D01*
X22053Y496338D01*
X21855Y495969D01*
X21675Y495584D01*
X21511Y495184D01*
X21365Y494768D01*
X21236Y494337D01*
X21124Y493890D01*
X21029Y493427D01*
X20952Y492949D01*
X20892Y492454D01*
X20849Y491945D01*
X20823Y491419D01*
X20814Y490878D01*
X20814Y485161D01*
X38100Y485161D01*
X38100Y491626D01*
G37*
G36*
X38100Y414442D02*
X30923Y414442D01*
X30923Y419827D01*
X38100Y424318D01*
X38100Y427017D01*
X33823Y424198D01*
X30653Y422109D01*
X30552Y422590D01*
X30421Y423044D01*
X30259Y423471D01*
X30068Y423871D01*
X29938Y424090D01*
X29845Y424245D01*
X29593Y424592D01*
X29310Y424913D01*
X28997Y425207D01*
X28659Y425470D01*
X28302Y425698D01*
X27926Y425891D01*
X27531Y426049D01*
X27117Y426172D01*
X26683Y426259D01*
X26230Y426312D01*
X25758Y426329D01*
X25471Y426323D01*
X25192Y426305D01*
X24920Y426274D01*
X24657Y426230D01*
X24154Y426106D01*
X23684Y425932D01*
X23245Y425709D01*
X22838Y425436D01*
X22464Y425113D01*
X22121Y424741D01*
X21815Y424323D01*
X21549Y423863D01*
X21325Y423362D01*
X21141Y422819D01*
X20998Y422235D01*
X20896Y421609D01*
X20835Y420941D01*
X20814Y420232D01*
X20814Y412099D01*
X38100Y412099D01*
X38100Y414442D01*
G37*
G36*
X38100Y454004D02*
X31365Y454004D01*
X31365Y459083D01*
X31342Y459752D01*
X31274Y460386D01*
X31161Y460983D01*
X31003Y461544D01*
X30799Y462070D01*
X30551Y462560D01*
X30257Y463014D01*
X29917Y463432D01*
X29540Y463807D01*
X29131Y464133D01*
X28690Y464408D01*
X28218Y464633D01*
X27715Y464808D01*
X27180Y464933D01*
X26901Y464977D01*
X26614Y465008D01*
X26319Y465027D01*
X26016Y465033D01*
X25711Y465027D01*
X25414Y465008D01*
X25126Y464977D01*
X24847Y464934D01*
X24576Y464877D01*
X24314Y464809D01*
X23817Y464635D01*
X23354Y464410D01*
X22927Y464136D01*
X22534Y463812D01*
X22176Y463438D01*
X21857Y463019D01*
X21580Y462559D01*
X21346Y462058D01*
X21155Y461515D01*
X21006Y460932D01*
X20899Y460308D01*
X20836Y459642D01*
X20814Y458936D01*
X20814Y451661D01*
X38100Y451661D01*
X38100Y454004D01*
G37*
G36*
X38100Y376497D02*
X26568Y376497D01*
X24249Y376448D01*
X22888Y376411D01*
X24237Y376816D01*
X26323Y377503D01*
X38100Y382030D01*
X38100Y383673D01*
X26323Y388139D01*
X25643Y388386D01*
X24844Y388648D01*
X23926Y388926D01*
X22888Y389219D01*
X23780Y389170D01*
X24691Y389136D01*
X25620Y389115D01*
X26568Y389108D01*
X38100Y389108D01*
X38100Y391218D01*
X20814Y391218D01*
X20814Y388213D01*
X32800Y383698D01*
X33243Y383537D01*
X34058Y383275D01*
X34930Y383016D01*
X35548Y382864D01*
X35065Y382752D01*
X34352Y382563D01*
X33550Y382332D01*
X32800Y382091D01*
X20814Y377490D01*
X20814Y374411D01*
X38100Y374411D01*
X38100Y376497D01*
G37*
%LPC*%
G36*
X22691Y487504D02*
X22691Y490829D01*
X22698Y491240D01*
X22718Y491638D01*
X22751Y492025D01*
X22797Y492399D01*
X22856Y492761D01*
X22929Y493110D01*
X23014Y493447D01*
X23113Y493772D01*
X23225Y494084D01*
X23350Y494384D01*
X23489Y494672D01*
X23640Y494948D01*
X23805Y495211D01*
X23983Y495462D01*
X24174Y495700D01*
X24378Y495926D01*
X24595Y496139D01*
X24824Y496339D01*
X25064Y496525D01*
X25317Y496696D01*
X25582Y496855D01*
X25858Y496999D01*
X26147Y497130D01*
X26447Y497247D01*
X26759Y497350D01*
X27083Y497439D01*
X27420Y497515D01*
X27768Y497577D01*
X28128Y497625D01*
X28500Y497659D01*
X28883Y497680D01*
X29279Y497687D01*
X29804Y497675D01*
X30311Y497638D01*
X30801Y497578D01*
X31273Y497494D01*
X31727Y497385D01*
X32164Y497252D01*
X32583Y497095D01*
X32984Y496914D01*
X33365Y496710D01*
X33723Y496486D01*
X34058Y496240D01*
X34371Y495974D01*
X34660Y495687D01*
X34926Y495378D01*
X35169Y495049D01*
X35389Y494699D01*
X35584Y494332D01*
X35754Y493950D01*
X35897Y493554D01*
X36014Y493143D01*
X36106Y492718D01*
X36171Y492278D01*
X36210Y491825D01*
X36223Y491356D01*
X36223Y487504D01*
X22691Y487504D01*
G37*
%LPD*%
G36*
X38100Y395734D02*
X33046Y397722D01*
X33046Y405598D01*
X38100Y407573D01*
X38100Y409965D01*
X20814Y403022D01*
X20814Y400359D01*
X38100Y393305D01*
X38100Y395734D01*
G37*
G36*
X38100Y503734D02*
X33046Y505722D01*
X33046Y513598D01*
X38100Y515573D01*
X38100Y517965D01*
X20814Y511022D01*
X20814Y508359D01*
X38100Y501305D01*
X38100Y503734D01*
G37*
G36*
X38100Y482029D02*
X36186Y482029D01*
X36186Y470754D01*
X30163Y470754D01*
X30163Y480790D01*
X28273Y480790D01*
X28273Y470754D01*
X22728Y470754D01*
X22728Y481526D01*
X20814Y481526D01*
X20814Y468411D01*
X38100Y468411D01*
X38100Y482029D01*
G37*
G36*
X34485Y356887D02*
X34983Y357075D01*
X35446Y357305D01*
X35875Y357576D01*
X36270Y357888D01*
X36630Y358242D01*
X36956Y358638D01*
X37247Y359075D01*
X37505Y359553D01*
X37728Y360073D01*
X37916Y360635D01*
X38071Y361238D01*
X38191Y361882D01*
X38277Y362568D01*
X38328Y363296D01*
X38345Y364065D01*
X38325Y364891D01*
X38263Y365669D01*
X38161Y366399D01*
X38017Y367081D01*
X37833Y367716D01*
X37607Y368303D01*
X37340Y368843D01*
X37033Y369334D01*
X36688Y369773D01*
X36309Y370153D01*
X36107Y370321D01*
X35896Y370474D01*
X35677Y370613D01*
X35450Y370737D01*
X35214Y370847D01*
X34970Y370942D01*
X34717Y371022D01*
X34456Y371088D01*
X34187Y371139D01*
X33909Y371176D01*
X33623Y371198D01*
X33328Y371205D01*
X32871Y371188D01*
X32444Y371139D01*
X32049Y371057D01*
X31684Y370941D01*
X31346Y370797D01*
X31031Y370627D01*
X30738Y370432D01*
X30469Y370211D01*
X30222Y369968D01*
X29994Y369704D01*
X29786Y369419D01*
X29598Y369113D01*
X29265Y368458D01*
X28979Y367758D01*
X28733Y367017D01*
X28525Y366243D01*
X28151Y364654D01*
X27897Y363563D01*
X27665Y362669D01*
X27452Y361974D01*
X27261Y361476D01*
X27070Y361101D01*
X26859Y360773D01*
X26629Y360491D01*
X26378Y360256D01*
X26100Y360071D01*
X25948Y359998D01*
X25787Y359938D01*
X25618Y359892D01*
X25441Y359859D01*
X25254Y359839D01*
X25059Y359832D01*
X24729Y359850D01*
X24420Y359901D01*
X24133Y359986D01*
X23866Y360105D01*
X23620Y360259D01*
X23396Y360447D01*
X23193Y360668D01*
X23010Y360924D01*
X22849Y361213D01*
X22710Y361532D01*
X22592Y361881D01*
X22495Y362262D01*
X22420Y362673D01*
X22366Y363114D01*
X22334Y363587D01*
X22323Y364090D01*
X22333Y364549D01*
X22362Y364983D01*
X22410Y365391D01*
X22478Y365773D01*
X22565Y366130D01*
X22672Y366461D01*
X22798Y366766D01*
X22943Y367046D01*
X23110Y367302D01*
X23300Y367537D01*
X23514Y367750D01*
X23751Y367942D01*
X24012Y368112D01*
X24297Y368261D01*
X24605Y368388D01*
X24936Y368494D01*
X24532Y370800D01*
X24009Y370629D01*
X23525Y370429D01*
X23082Y370200D01*
X22678Y369941D01*
X22313Y369654D01*
X21989Y369337D01*
X21704Y368991D01*
X21458Y368616D01*
X21247Y368205D01*
X21064Y367751D01*
X20909Y367253D01*
X20782Y366712D01*
X20683Y366127D01*
X20613Y365500D01*
X20571Y364828D01*
X20557Y364114D01*
X20575Y363346D01*
X20632Y362623D01*
X20726Y361946D01*
X20857Y361315D01*
X21026Y360730D01*
X21233Y360191D01*
X21477Y359697D01*
X21759Y359250D01*
X22075Y358852D01*
X22424Y358506D01*
X22804Y358214D01*
X23216Y357975D01*
X23660Y357790D01*
X23893Y357717D01*
X24135Y357657D01*
X24385Y357610D01*
X24643Y357577D01*
X24908Y357557D01*
X25182Y357551D01*
X25653Y357571D01*
X26096Y357632D01*
X26511Y357733D01*
X26899Y357876D01*
X27262Y358056D01*
X27600Y358273D01*
X27915Y358526D01*
X28206Y358814D01*
X28478Y359149D01*
X28738Y359540D01*
X28984Y359986D01*
X29218Y360489D01*
X29445Y361081D01*
X29672Y361797D01*
X29899Y362636D01*
X30126Y363599D01*
X30629Y365746D01*
X30752Y366213D01*
X30889Y366647D01*
X31041Y367048D01*
X31205Y367414D01*
X31389Y367744D01*
X31595Y368035D01*
X31824Y368287D01*
X32076Y368500D01*
X32360Y368669D01*
X32684Y368790D01*
X32860Y368832D01*
X33047Y368862D01*
X33244Y368880D01*
X33450Y368886D01*
X33816Y368867D01*
X34159Y368809D01*
X34480Y368713D01*
X34777Y368578D01*
X35052Y368405D01*
X35303Y368193D01*
X35532Y367942D01*
X35738Y367653D01*
X35921Y367329D01*
X36079Y366972D01*
X36213Y366583D01*
X36323Y366161D01*
X36408Y365707D01*
X36469Y365221D01*
X36505Y364702D01*
X36517Y364151D01*
X36506Y363616D01*
X36472Y363110D01*
X36415Y362633D01*
X36335Y362185D01*
X36232Y361765D01*
X36107Y361374D01*
X35959Y361012D01*
X35788Y360679D01*
X35592Y360374D01*
X35371Y360096D01*
X35124Y359846D01*
X34851Y359624D01*
X34552Y359429D01*
X34227Y359262D01*
X33876Y359122D01*
X33500Y359011D01*
X33953Y356741D01*
X34485Y356887D01*
G37*
G36*
X22728Y434227D02*
X38100Y434227D01*
X38100Y436558D01*
X22728Y436558D01*
X22728Y442496D01*
X20814Y442496D01*
X20814Y428289D01*
X22728Y428289D01*
X22728Y434227D01*
G37*
G36*
X38100Y531145D02*
X36186Y531145D01*
X36186Y522410D01*
X20814Y522410D01*
X20814Y520067D01*
X38100Y520067D01*
X38100Y531145D01*
G37*
%LPC*%
G36*
X22691Y414442D02*
X22691Y419999D01*
X22704Y420467D01*
X22741Y420906D01*
X22803Y421317D01*
X22889Y421700D01*
X23000Y422055D01*
X23136Y422381D01*
X23297Y422679D01*
X23483Y422950D01*
X23692Y423190D01*
X23923Y423398D01*
X24177Y423574D01*
X24453Y423718D01*
X24752Y423830D01*
X25073Y423910D01*
X25417Y423958D01*
X25783Y423974D01*
X26162Y423958D01*
X26519Y423911D01*
X26854Y423832D01*
X27168Y423721D01*
X27460Y423579D01*
X27730Y423405D01*
X27979Y423199D01*
X28206Y422962D01*
X28409Y422696D01*
X28584Y422403D01*
X28733Y422085D01*
X28855Y421740D01*
X28949Y421368D01*
X29017Y420971D01*
X29057Y420547D01*
X29071Y420097D01*
X29071Y414442D01*
X22691Y414442D01*
G37*
G36*
X22691Y454004D02*
X22691Y458654D01*
X22704Y459141D01*
X22744Y459597D01*
X22809Y460021D01*
X22901Y460414D01*
X23018Y460776D01*
X23162Y461106D01*
X23332Y461405D01*
X23529Y461672D01*
X23751Y461908D01*
X24000Y462112D01*
X24274Y462285D01*
X24575Y462426D01*
X24902Y462536D01*
X25256Y462615D01*
X25635Y462662D01*
X26041Y462678D01*
X26461Y462662D01*
X26854Y462616D01*
X27220Y462540D01*
X27559Y462432D01*
X27871Y462294D01*
X28156Y462126D01*
X28414Y461926D01*
X28644Y461696D01*
X28848Y461436D01*
X29024Y461144D01*
X29173Y460822D01*
X29295Y460470D01*
X29390Y460086D01*
X29458Y459672D01*
X29499Y459227D01*
X29512Y458752D01*
X29512Y454004D01*
X22691Y454004D01*
G37*
G36*
X25538Y400642D02*
X24087Y401169D01*
X22924Y401549D01*
X22581Y401660D01*
X23599Y401991D01*
X24611Y402335D01*
X25513Y402678D01*
X31218Y404899D01*
X31218Y398433D01*
X25538Y400642D01*
G37*
G36*
X25538Y508642D02*
X24087Y509169D01*
X22924Y509549D01*
X22581Y509660D01*
X23599Y509991D01*
X24611Y510335D01*
X25513Y510678D01*
X31218Y512899D01*
X31218Y506433D01*
X25538Y508642D01*
G37*
%LPD*%
D10*
X403680Y165100D03*
X434520Y165100D03*
D11*
X515750Y177800D03*
X500250Y177800D03*
D12*
X667800Y292100D03*
X653000Y292100D03*
D13*
X659925Y387775D02*
X687075Y387775D01*
X659925Y387775D02*
X659925Y399625D01*
X687075Y399625D01*
X687075Y387775D01*
X687075Y391527D02*
X659925Y391527D01*
X659925Y395279D02*
X687075Y395279D01*
X687075Y399031D02*
X659925Y399031D01*
X709925Y387775D02*
X737075Y387775D01*
X709925Y387775D02*
X709925Y399625D01*
X737075Y399625D01*
X737075Y387775D01*
X737075Y391527D02*
X709925Y391527D01*
X709925Y395279D02*
X737075Y395279D01*
X737075Y399031D02*
X709925Y399031D01*
D14*
X337900Y254000D03*
X322500Y254000D03*
D13*
X578275Y430525D02*
X578275Y457675D01*
X590125Y457675D01*
X590125Y430525D01*
X578275Y430525D01*
X578275Y434277D02*
X590125Y434277D01*
X590125Y438029D02*
X578275Y438029D01*
X578275Y441781D02*
X590125Y441781D01*
X590125Y445533D02*
X578275Y445533D01*
X578275Y449285D02*
X590125Y449285D01*
X590125Y453037D02*
X578275Y453037D01*
X578275Y456789D02*
X590125Y456789D01*
X578275Y407675D02*
X578275Y380525D01*
X578275Y407675D02*
X590125Y407675D01*
X590125Y380525D01*
X578275Y380525D01*
X578275Y384277D02*
X590125Y384277D01*
X590125Y388029D02*
X578275Y388029D01*
X578275Y391781D02*
X590125Y391781D01*
X590125Y395533D02*
X578275Y395533D01*
X578275Y399285D02*
X590125Y399285D01*
X590125Y403037D02*
X578275Y403037D01*
X578275Y406789D02*
X590125Y406789D01*
D15*
X403040Y215900D03*
D16*
X485960Y215900D03*
D15*
X485960Y254000D03*
D16*
X403040Y254000D03*
D17*
X706050Y292100D03*
X690950Y292100D03*
D18*
X668200Y330200D03*
X652600Y330200D03*
D17*
X515800Y152400D03*
X500200Y152400D03*
D19*
X693510Y457200D03*
X678090Y457200D03*
X731610Y457200D03*
X716190Y457200D03*
D17*
X462350Y152400D03*
X477450Y152400D03*
D20*
X431800Y330200D03*
X482600Y393700D03*
X609600Y266700D03*
X304800Y685800D03*
X355600Y114300D03*
D21*
X500450Y334900D02*
X517850Y334900D01*
X500450Y334900D02*
X500450Y338200D01*
X517850Y338200D01*
X517850Y334900D01*
X517850Y338035D02*
X500450Y338035D01*
X500450Y322200D02*
X517850Y322200D01*
X500450Y322200D02*
X500450Y325500D01*
X517850Y325500D01*
X517850Y322200D01*
X517850Y325335D02*
X500450Y325335D01*
X500450Y309500D02*
X517850Y309500D01*
X500450Y309500D02*
X500450Y312800D01*
X517850Y312800D01*
X517850Y309500D01*
X517850Y312635D02*
X500450Y312635D01*
X500450Y296800D02*
X517850Y296800D01*
X500450Y296800D02*
X500450Y300100D01*
X517850Y300100D01*
X517850Y296800D01*
X517850Y299935D02*
X500450Y299935D01*
X548950Y296800D02*
X566350Y296800D01*
X548950Y296800D02*
X548950Y300100D01*
X566350Y300100D01*
X566350Y296800D01*
X566350Y299935D02*
X548950Y299935D01*
X548950Y309500D02*
X566350Y309500D01*
X548950Y309500D02*
X548950Y312800D01*
X566350Y312800D01*
X566350Y309500D01*
X566350Y312635D02*
X548950Y312635D01*
X548950Y322200D02*
X566350Y322200D01*
X548950Y322200D02*
X548950Y325500D01*
X566350Y325500D01*
X566350Y322200D01*
X566350Y325335D02*
X548950Y325335D01*
X548950Y334900D02*
X566350Y334900D01*
X548950Y334900D02*
X548950Y338200D01*
X566350Y338200D01*
X566350Y334900D01*
X566350Y338035D02*
X548950Y338035D01*
D22*
X353822Y152400D03*
X353822Y165100D03*
X353822Y177800D03*
X353822Y190500D03*
X353822Y203200D03*
X353822Y215900D03*
X353822Y228600D03*
X306578Y228600D03*
X306578Y215900D03*
X306578Y203200D03*
X306578Y190500D03*
X306578Y177800D03*
X306578Y165100D03*
X306578Y152400D03*
D23*
X265938Y254000D03*
X265938Y266700D03*
X265938Y279400D03*
X265938Y292100D03*
X265938Y304800D03*
X265938Y317500D03*
X265938Y330200D03*
X216662Y330200D03*
X216662Y317500D03*
X216662Y304800D03*
X216662Y292100D03*
X216662Y279400D03*
X216662Y266700D03*
X216662Y254000D03*
D14*
X757000Y495300D03*
X741600Y495300D03*
D24*
X591850Y482600D03*
X576550Y482600D03*
D18*
X401500Y647700D03*
X385900Y647700D03*
D25*
X359156Y441706D03*
X359156Y436880D03*
X359156Y431800D03*
X359156Y426720D03*
X359156Y421894D03*
X402844Y421894D03*
X402844Y426720D03*
X402844Y431800D03*
X402844Y436880D03*
X402844Y441706D03*
D26*
X355600Y487710D03*
X355600Y502890D03*
D27*
X691887Y69987D02*
X702413Y69987D01*
X691887Y69987D02*
X691887Y72013D01*
X702413Y72013D01*
X702413Y69987D01*
X702413Y70628D02*
X691887Y70628D01*
X691887Y71269D02*
X702413Y71269D01*
X702413Y71910D02*
X691887Y71910D01*
X691887Y64987D02*
X702413Y64987D01*
X691887Y64987D02*
X691887Y67013D01*
X702413Y67013D01*
X702413Y64987D01*
X702413Y65628D02*
X691887Y65628D01*
X691887Y66269D02*
X702413Y66269D01*
X702413Y66910D02*
X691887Y66910D01*
X691887Y59987D02*
X702413Y59987D01*
X691887Y59987D02*
X691887Y62013D01*
X702413Y62013D01*
X702413Y59987D01*
X702413Y60628D02*
X691887Y60628D01*
X691887Y61269D02*
X702413Y61269D01*
X702413Y61910D02*
X691887Y61910D01*
X691887Y54987D02*
X702413Y54987D01*
X691887Y54987D02*
X691887Y57013D01*
X702413Y57013D01*
X702413Y54987D01*
X702413Y55628D02*
X691887Y55628D01*
X691887Y56269D02*
X702413Y56269D01*
X702413Y56910D02*
X691887Y56910D01*
X719987Y54987D02*
X730513Y54987D01*
X719987Y54987D02*
X719987Y57013D01*
X730513Y57013D01*
X730513Y54987D01*
X730513Y55628D02*
X719987Y55628D01*
X719987Y56269D02*
X730513Y56269D01*
X730513Y56910D02*
X719987Y56910D01*
X719987Y59987D02*
X730513Y59987D01*
X719987Y59987D02*
X719987Y62013D01*
X730513Y62013D01*
X730513Y59987D01*
X730513Y60628D02*
X719987Y60628D01*
X719987Y61269D02*
X730513Y61269D01*
X730513Y61910D02*
X719987Y61910D01*
X719987Y64987D02*
X730513Y64987D01*
X719987Y64987D02*
X719987Y67013D01*
X730513Y67013D01*
X730513Y64987D01*
X730513Y65628D02*
X719987Y65628D01*
X719987Y66269D02*
X730513Y66269D01*
X730513Y66910D02*
X719987Y66910D01*
X719987Y69987D02*
X730513Y69987D01*
X719987Y69987D02*
X719987Y72013D01*
X730513Y72013D01*
X730513Y69987D01*
X730513Y70628D02*
X719987Y70628D01*
X719987Y71269D02*
X730513Y71269D01*
X730513Y71910D02*
X719987Y71910D01*
X613513Y69987D02*
X602987Y69987D01*
X602987Y72013D01*
X613513Y72013D01*
X613513Y69987D01*
X613513Y70628D02*
X602987Y70628D01*
X602987Y71269D02*
X613513Y71269D01*
X613513Y71910D02*
X602987Y71910D01*
X602987Y64987D02*
X613513Y64987D01*
X602987Y64987D02*
X602987Y67013D01*
X613513Y67013D01*
X613513Y64987D01*
X613513Y65628D02*
X602987Y65628D01*
X602987Y66269D02*
X613513Y66269D01*
X613513Y66910D02*
X602987Y66910D01*
X602987Y59987D02*
X613513Y59987D01*
X602987Y59987D02*
X602987Y62013D01*
X613513Y62013D01*
X613513Y59987D01*
X613513Y60628D02*
X602987Y60628D01*
X602987Y61269D02*
X613513Y61269D01*
X613513Y61910D02*
X602987Y61910D01*
X602987Y54987D02*
X613513Y54987D01*
X602987Y54987D02*
X602987Y57013D01*
X613513Y57013D01*
X613513Y54987D01*
X613513Y55628D02*
X602987Y55628D01*
X602987Y56269D02*
X613513Y56269D01*
X613513Y56910D02*
X602987Y56910D01*
X631087Y54987D02*
X641613Y54987D01*
X631087Y54987D02*
X631087Y57013D01*
X641613Y57013D01*
X641613Y54987D01*
X641613Y55628D02*
X631087Y55628D01*
X631087Y56269D02*
X641613Y56269D01*
X641613Y56910D02*
X631087Y56910D01*
X631087Y59987D02*
X641613Y59987D01*
X631087Y59987D02*
X631087Y62013D01*
X641613Y62013D01*
X641613Y59987D01*
X641613Y60628D02*
X631087Y60628D01*
X631087Y61269D02*
X641613Y61269D01*
X641613Y61910D02*
X631087Y61910D01*
X631087Y64987D02*
X641613Y64987D01*
X631087Y64987D02*
X631087Y67013D01*
X641613Y67013D01*
X641613Y64987D01*
X641613Y65628D02*
X631087Y65628D01*
X631087Y66269D02*
X641613Y66269D01*
X641613Y66910D02*
X631087Y66910D01*
X631087Y69987D02*
X641613Y69987D01*
X631087Y69987D02*
X631087Y72013D01*
X641613Y72013D01*
X641613Y69987D01*
X641613Y70628D02*
X631087Y70628D01*
X631087Y71269D02*
X641613Y71269D01*
X641613Y71910D02*
X631087Y71910D01*
X524613Y69987D02*
X514087Y69987D01*
X514087Y72013D01*
X524613Y72013D01*
X524613Y69987D01*
X524613Y70628D02*
X514087Y70628D01*
X514087Y71269D02*
X524613Y71269D01*
X524613Y71910D02*
X514087Y71910D01*
X514087Y64987D02*
X524613Y64987D01*
X514087Y64987D02*
X514087Y67013D01*
X524613Y67013D01*
X524613Y64987D01*
X524613Y65628D02*
X514087Y65628D01*
X514087Y66269D02*
X524613Y66269D01*
X524613Y66910D02*
X514087Y66910D01*
X514087Y59987D02*
X524613Y59987D01*
X514087Y59987D02*
X514087Y62013D01*
X524613Y62013D01*
X524613Y59987D01*
X524613Y60628D02*
X514087Y60628D01*
X514087Y61269D02*
X524613Y61269D01*
X524613Y61910D02*
X514087Y61910D01*
X514087Y54987D02*
X524613Y54987D01*
X514087Y54987D02*
X514087Y57013D01*
X524613Y57013D01*
X524613Y54987D01*
X524613Y55628D02*
X514087Y55628D01*
X514087Y56269D02*
X524613Y56269D01*
X524613Y56910D02*
X514087Y56910D01*
X542187Y54987D02*
X552713Y54987D01*
X542187Y54987D02*
X542187Y57013D01*
X552713Y57013D01*
X552713Y54987D01*
X552713Y55628D02*
X542187Y55628D01*
X542187Y56269D02*
X552713Y56269D01*
X552713Y56910D02*
X542187Y56910D01*
X542187Y59987D02*
X552713Y59987D01*
X542187Y59987D02*
X542187Y62013D01*
X552713Y62013D01*
X552713Y59987D01*
X552713Y60628D02*
X542187Y60628D01*
X542187Y61269D02*
X552713Y61269D01*
X552713Y61910D02*
X542187Y61910D01*
X542187Y64987D02*
X552713Y64987D01*
X542187Y64987D02*
X542187Y67013D01*
X552713Y67013D01*
X552713Y64987D01*
X552713Y65628D02*
X542187Y65628D01*
X542187Y66269D02*
X552713Y66269D01*
X552713Y66910D02*
X542187Y66910D01*
X542187Y69987D02*
X552713Y69987D01*
X542187Y69987D02*
X542187Y72013D01*
X552713Y72013D01*
X552713Y69987D01*
X552713Y70628D02*
X542187Y70628D01*
X542187Y71269D02*
X552713Y71269D01*
X552713Y71910D02*
X542187Y71910D01*
X793487Y501787D02*
X804013Y501787D01*
X793487Y501787D02*
X793487Y503813D01*
X804013Y503813D01*
X804013Y501787D01*
X804013Y502428D02*
X793487Y502428D01*
X793487Y503069D02*
X804013Y503069D01*
X804013Y503710D02*
X793487Y503710D01*
X793487Y496787D02*
X804013Y496787D01*
X793487Y496787D02*
X793487Y498813D01*
X804013Y498813D01*
X804013Y496787D01*
X804013Y497428D02*
X793487Y497428D01*
X793487Y498069D02*
X804013Y498069D01*
X804013Y498710D02*
X793487Y498710D01*
X793487Y491787D02*
X804013Y491787D01*
X793487Y491787D02*
X793487Y493813D01*
X804013Y493813D01*
X804013Y491787D01*
X804013Y492428D02*
X793487Y492428D01*
X793487Y493069D02*
X804013Y493069D01*
X804013Y493710D02*
X793487Y493710D01*
X793487Y486787D02*
X804013Y486787D01*
X793487Y486787D02*
X793487Y488813D01*
X804013Y488813D01*
X804013Y486787D01*
X804013Y487428D02*
X793487Y487428D01*
X793487Y488069D02*
X804013Y488069D01*
X804013Y488710D02*
X793487Y488710D01*
X821587Y486787D02*
X832113Y486787D01*
X821587Y486787D02*
X821587Y488813D01*
X832113Y488813D01*
X832113Y486787D01*
X832113Y487428D02*
X821587Y487428D01*
X821587Y488069D02*
X832113Y488069D01*
X832113Y488710D02*
X821587Y488710D01*
X821587Y491787D02*
X832113Y491787D01*
X821587Y491787D02*
X821587Y493813D01*
X832113Y493813D01*
X832113Y491787D01*
X832113Y492428D02*
X821587Y492428D01*
X821587Y493069D02*
X832113Y493069D01*
X832113Y493710D02*
X821587Y493710D01*
X821587Y496787D02*
X832113Y496787D01*
X821587Y496787D02*
X821587Y498813D01*
X832113Y498813D01*
X832113Y496787D01*
X832113Y497428D02*
X821587Y497428D01*
X821587Y498069D02*
X832113Y498069D01*
X832113Y498710D02*
X821587Y498710D01*
X821587Y501787D02*
X832113Y501787D01*
X821587Y501787D02*
X821587Y503813D01*
X832113Y503813D01*
X832113Y501787D01*
X832113Y502428D02*
X821587Y502428D01*
X821587Y503069D02*
X832113Y503069D01*
X832113Y503710D02*
X821587Y503710D01*
X781313Y285613D02*
X770787Y285613D01*
X781313Y285613D02*
X781313Y283587D01*
X770787Y283587D01*
X770787Y285613D01*
X770787Y284228D02*
X781313Y284228D01*
X781313Y284869D02*
X770787Y284869D01*
X770787Y285510D02*
X781313Y285510D01*
X781313Y290613D02*
X770787Y290613D01*
X781313Y290613D02*
X781313Y288587D01*
X770787Y288587D01*
X770787Y290613D01*
X770787Y289228D02*
X781313Y289228D01*
X781313Y289869D02*
X770787Y289869D01*
X770787Y290510D02*
X781313Y290510D01*
X781313Y295613D02*
X770787Y295613D01*
X781313Y295613D02*
X781313Y293587D01*
X770787Y293587D01*
X770787Y295613D01*
X770787Y294228D02*
X781313Y294228D01*
X781313Y294869D02*
X770787Y294869D01*
X770787Y295510D02*
X781313Y295510D01*
X781313Y300613D02*
X770787Y300613D01*
X781313Y300613D02*
X781313Y298587D01*
X770787Y298587D01*
X770787Y300613D01*
X770787Y299228D02*
X781313Y299228D01*
X781313Y299869D02*
X770787Y299869D01*
X770787Y300510D02*
X781313Y300510D01*
X753213Y300613D02*
X742687Y300613D01*
X753213Y300613D02*
X753213Y298587D01*
X742687Y298587D01*
X742687Y300613D01*
X742687Y299228D02*
X753213Y299228D01*
X753213Y299869D02*
X742687Y299869D01*
X742687Y300510D02*
X753213Y300510D01*
X753213Y295613D02*
X742687Y295613D01*
X753213Y295613D02*
X753213Y293587D01*
X742687Y293587D01*
X742687Y295613D01*
X742687Y294228D02*
X753213Y294228D01*
X753213Y294869D02*
X742687Y294869D01*
X742687Y295510D02*
X753213Y295510D01*
X753213Y290613D02*
X742687Y290613D01*
X753213Y290613D02*
X753213Y288587D01*
X742687Y288587D01*
X742687Y290613D01*
X742687Y289228D02*
X753213Y289228D01*
X753213Y289869D02*
X742687Y289869D01*
X742687Y290510D02*
X753213Y290510D01*
X753213Y285613D02*
X742687Y285613D01*
X753213Y285613D02*
X753213Y283587D01*
X742687Y283587D01*
X742687Y285613D01*
X742687Y284228D02*
X753213Y284228D01*
X753213Y284869D02*
X742687Y284869D01*
X742687Y285510D02*
X753213Y285510D01*
X257913Y82687D02*
X247387Y82687D01*
X247387Y84713D01*
X257913Y84713D01*
X257913Y82687D01*
X257913Y83328D02*
X247387Y83328D01*
X247387Y83969D02*
X257913Y83969D01*
X257913Y84610D02*
X247387Y84610D01*
X247387Y77687D02*
X257913Y77687D01*
X247387Y77687D02*
X247387Y79713D01*
X257913Y79713D01*
X257913Y77687D01*
X257913Y78328D02*
X247387Y78328D01*
X247387Y78969D02*
X257913Y78969D01*
X257913Y79610D02*
X247387Y79610D01*
X247387Y72687D02*
X257913Y72687D01*
X247387Y72687D02*
X247387Y74713D01*
X257913Y74713D01*
X257913Y72687D01*
X257913Y73328D02*
X247387Y73328D01*
X247387Y73969D02*
X257913Y73969D01*
X257913Y74610D02*
X247387Y74610D01*
X247387Y67687D02*
X257913Y67687D01*
X247387Y67687D02*
X247387Y69713D01*
X257913Y69713D01*
X257913Y67687D01*
X257913Y68328D02*
X247387Y68328D01*
X247387Y68969D02*
X257913Y68969D01*
X257913Y69610D02*
X247387Y69610D01*
X275487Y67687D02*
X286013Y67687D01*
X275487Y67687D02*
X275487Y69713D01*
X286013Y69713D01*
X286013Y67687D01*
X286013Y68328D02*
X275487Y68328D01*
X275487Y68969D02*
X286013Y68969D01*
X286013Y69610D02*
X275487Y69610D01*
X275487Y72687D02*
X286013Y72687D01*
X275487Y72687D02*
X275487Y74713D01*
X286013Y74713D01*
X286013Y72687D01*
X286013Y73328D02*
X275487Y73328D01*
X275487Y73969D02*
X286013Y73969D01*
X286013Y74610D02*
X275487Y74610D01*
X275487Y77687D02*
X286013Y77687D01*
X275487Y77687D02*
X275487Y79713D01*
X286013Y79713D01*
X286013Y77687D01*
X286013Y78328D02*
X275487Y78328D01*
X275487Y78969D02*
X286013Y78969D01*
X286013Y79610D02*
X275487Y79610D01*
X275487Y82687D02*
X286013Y82687D01*
X275487Y82687D02*
X275487Y84713D01*
X286013Y84713D01*
X286013Y82687D01*
X286013Y83328D02*
X275487Y83328D01*
X275487Y83969D02*
X286013Y83969D01*
X286013Y84610D02*
X275487Y84610D01*
D22*
X268478Y584200D03*
X268478Y571500D03*
X268478Y558800D03*
X268478Y546100D03*
X268478Y533400D03*
X268478Y520700D03*
X268478Y508000D03*
X315722Y508000D03*
X315722Y520700D03*
X315722Y533400D03*
X315722Y546100D03*
X315722Y558800D03*
X315722Y571500D03*
X315722Y584200D03*
D28*
X355600Y284390D03*
X355600Y299810D03*
X381000Y284390D03*
X381000Y299810D03*
X330200Y284390D03*
X330200Y299810D03*
X304800Y284390D03*
X304800Y299810D03*
X228600Y515710D03*
X228600Y500290D03*
X266700Y436790D03*
X266700Y452210D03*
D19*
X350610Y393700D03*
X335190Y393700D03*
X309790Y419100D03*
X325210Y419100D03*
D29*
X584200Y93900D03*
X584200Y109300D03*
X558800Y93900D03*
X558800Y109300D03*
X228600Y96600D03*
X228600Y81200D03*
X203200Y96600D03*
X203200Y81200D03*
X660400Y93900D03*
X660400Y109300D03*
X635000Y93900D03*
X635000Y109300D03*
X736600Y93900D03*
X736600Y109300D03*
X762000Y93900D03*
X762000Y109300D03*
D14*
X820500Y304800D03*
X805100Y304800D03*
X820500Y330200D03*
X805100Y330200D03*
X858600Y533400D03*
X843200Y533400D03*
X858600Y558800D03*
X843200Y558800D03*
D20*
X673100Y495300D03*
X368300Y685800D03*
X152400Y558800D03*
X406400Y520700D03*
X215900Y558800D03*
X749300Y546100D03*
X774700Y368300D03*
X228600Y139700D03*
X736600Y152400D03*
X660400Y152400D03*
X571500Y152400D03*
X152400Y317500D03*
D30*
X977900Y101600D03*
D31*
X850900Y165100D03*
D28*
X838200Y678090D03*
X838200Y693510D03*
X800100Y678090D03*
X800100Y693510D03*
X762000Y678090D03*
X762000Y693510D03*
X723900Y678090D03*
X723900Y693510D03*
X685800Y678090D03*
X685800Y693510D03*
X647700Y678090D03*
X647700Y693510D03*
X609600Y678090D03*
X609600Y693510D03*
X571500Y678090D03*
X571500Y693510D03*
X533400Y678090D03*
X533400Y693510D03*
X495300Y678090D03*
X495300Y693510D03*
X457200Y678090D03*
X457200Y693510D03*
X419100Y678090D03*
X419100Y693510D03*
D32*
X47100Y151300D03*
X27100Y77300D03*
D33*
X121100Y77300D03*
D34*
X152400Y710550D03*
X152400Y661050D03*
X127000Y710550D03*
X127000Y661050D03*
X101600Y710550D03*
X101600Y661050D03*
X76200Y710550D03*
X76200Y661050D03*
X50800Y710550D03*
X50800Y661050D03*
D17*
X401500Y584200D03*
X385900Y584200D03*
X385900Y622300D03*
X401500Y622300D03*
D15*
X508000Y533400D03*
D16*
X495300Y546100D03*
X482600Y533400D03*
D29*
X228600Y617300D03*
X228600Y601900D03*
D35*
X571500Y546640D02*
X571500Y532760D01*
X584200Y532760D02*
X584200Y546640D01*
X596900Y546640D02*
X596900Y532760D01*
D17*
X805000Y241300D03*
X820600Y241300D03*
X805000Y215900D03*
X820600Y215900D03*
X805000Y266700D03*
X820600Y266700D03*
X855800Y292100D03*
X871400Y292100D03*
X855800Y266700D03*
X871400Y266700D03*
D36*
X533400Y474800D03*
X533400Y490400D03*
D37*
X939800Y723900D03*
X914400Y723900D03*
X939800Y698500D03*
X914400Y698500D03*
X939800Y673100D03*
X914400Y673100D03*
X939800Y647700D03*
X914400Y647700D03*
X939800Y622300D03*
X914400Y622300D03*
X939800Y596900D03*
X914400Y596900D03*
X939800Y571500D03*
X914400Y571500D03*
X939800Y546100D03*
X914400Y546100D03*
X939800Y520700D03*
X914400Y520700D03*
X939800Y495300D03*
X914400Y495300D03*
X939800Y469900D03*
X914400Y469900D03*
X939800Y444500D03*
X914400Y444500D03*
X939800Y419100D03*
X914400Y419100D03*
X939800Y393700D03*
X914400Y393700D03*
X939800Y368300D03*
X914400Y368300D03*
X939800Y342900D03*
X914400Y342900D03*
X939800Y317500D03*
X914400Y317500D03*
X939800Y292100D03*
X914400Y292100D03*
X939800Y266700D03*
X914400Y266700D03*
X939800Y241300D03*
X914400Y241300D03*
D38*
X716190Y457200D02*
X693510Y457200D01*
X669036Y390144D02*
X669036Y330708D01*
X669036Y390144D02*
X672084Y393192D01*
X669036Y330708D02*
X668200Y330200D01*
X672084Y393192D02*
X673500Y393700D01*
X693420Y414528D02*
X693420Y457200D01*
X693420Y414528D02*
X673608Y394716D01*
X693420Y457200D02*
X693510Y457200D01*
X673608Y394716D02*
X673500Y393700D01*
X336804Y252984D02*
X318516Y234696D01*
X295656Y234696D01*
X292608Y231648D01*
X292608Y173736D01*
X295656Y170688D01*
X318516Y170688D01*
X342900Y146304D01*
X365760Y146304D01*
X367284Y147828D01*
X367284Y156972D01*
X359664Y164592D01*
X355092Y164592D01*
X336804Y252984D02*
X337900Y254000D01*
X353822Y165100D02*
X355092Y164592D01*
X437388Y335280D02*
X509016Y335280D01*
X437388Y335280D02*
X432816Y330708D01*
X509016Y335280D02*
X509150Y336550D01*
X432816Y330708D02*
X431800Y330200D01*
X446532Y178308D02*
X499872Y178308D01*
X446532Y178308D02*
X409956Y214884D01*
X403860Y214884D01*
X499872Y178308D02*
X500250Y177800D01*
X403860Y214884D02*
X403040Y215900D01*
X403860Y216408D02*
X403860Y252984D01*
X403040Y254000D01*
X403860Y216408D02*
X403040Y215900D01*
X431292Y281940D02*
X431292Y329184D01*
X431292Y281940D02*
X403860Y254508D01*
X431292Y329184D02*
X431800Y330200D01*
X403860Y254508D02*
X403040Y254000D01*
X348996Y254508D02*
X338328Y254508D01*
X337900Y254000D01*
D39*
X348996Y254508D03*
D38*
X216408Y292608D02*
X216408Y304800D01*
X216408Y292608D02*
X216662Y292100D01*
X216662Y304800D02*
X216408Y304800D01*
X217932Y329184D02*
X220980Y329184D01*
X230124Y320040D01*
X230124Y313944D01*
X220980Y304800D01*
X216662Y304800D01*
X217932Y329184D02*
X216662Y330200D01*
X228600Y96012D02*
X204216Y96012D01*
X203200Y96600D01*
X228600Y96600D02*
X228600Y96012D01*
X251460Y68580D02*
X202692Y68580D01*
X195072Y76200D01*
X195072Y88392D01*
X202692Y96012D01*
X251460Y68580D02*
X252650Y68700D01*
X203200Y96600D02*
X202692Y96012D01*
X89916Y76200D02*
X27432Y76200D01*
X89916Y76200D02*
X105156Y60960D01*
X179832Y60960D01*
X195072Y76200D01*
X27432Y76200D02*
X27100Y77300D01*
X217932Y291084D02*
X220980Y291084D01*
X242316Y269748D01*
X242316Y155448D01*
X248412Y149352D01*
X248412Y117348D01*
X228600Y97536D01*
X217932Y291084D02*
X216662Y292100D01*
X228600Y97536D02*
X228600Y96600D01*
X394716Y426720D02*
X402844Y426720D01*
X394716Y426720D02*
X391668Y429768D01*
X391668Y438912D01*
X394716Y441960D01*
X402336Y441960D01*
X402844Y441706D01*
X355092Y489204D02*
X352044Y489204D01*
X339852Y501396D02*
X321564Y519684D01*
X339852Y501396D02*
X352044Y489204D01*
X321564Y519684D02*
X316992Y519684D01*
X355092Y489204D02*
X355600Y487710D01*
X316992Y519684D02*
X315722Y520700D01*
X403860Y487680D02*
X403860Y441960D01*
X403860Y487680D02*
X426720Y510540D01*
X426720Y524256D02*
X426720Y530352D01*
X426720Y524256D02*
X426720Y510540D01*
X426720Y530352D02*
X423672Y533400D01*
X371856Y533400D01*
X339852Y501396D01*
X402844Y441706D02*
X403860Y441960D01*
X316992Y533400D02*
X316992Y545592D01*
X315722Y546100D01*
X274320Y583692D02*
X269748Y583692D01*
X274320Y583692D02*
X301752Y556260D01*
X301752Y554736D01*
X309372Y547116D01*
X315468Y547116D01*
X269748Y583692D02*
X268478Y584200D01*
X315468Y547116D02*
X315722Y546100D01*
X102108Y656844D02*
X102108Y659892D01*
X102108Y656844D02*
X149352Y609600D01*
X243840Y609600D01*
X268224Y585216D01*
X102108Y659892D02*
X101600Y661050D01*
X268224Y585216D02*
X268478Y584200D01*
X316992Y533400D02*
X316992Y521208D01*
X315722Y520700D01*
X315722Y533400D02*
X316992Y533400D01*
X216408Y460248D02*
X216408Y330708D01*
X216408Y460248D02*
X67056Y609600D01*
X67056Y681228D01*
X68580Y682752D01*
X83820Y682752D01*
X100584Y665988D01*
X100584Y661416D01*
X216408Y330708D02*
X216662Y330200D01*
X101600Y661050D02*
X100584Y661416D01*
X859536Y557784D02*
X859536Y533400D01*
X859536Y557784D02*
X858600Y558800D01*
X859536Y533400D02*
X876300Y533400D01*
X914400Y495300D01*
X859536Y533400D02*
X858600Y533400D01*
X821436Y329184D02*
X821436Y304800D01*
X821436Y329184D02*
X820500Y330200D01*
X783336Y298704D02*
X777240Y298704D01*
X783336Y298704D02*
X797052Y284988D01*
X797052Y236220D01*
X800100Y233172D01*
X826008Y233172D01*
X829056Y236220D01*
X829056Y297180D01*
X821436Y304800D01*
X777240Y298704D02*
X776050Y299600D01*
X820500Y304800D02*
X821436Y304800D01*
X800100Y417576D02*
X800100Y487680D01*
X800100Y417576D02*
X819912Y397764D01*
X819912Y368808D02*
X819912Y330708D01*
X819912Y368808D02*
X819912Y397764D01*
X800100Y487680D02*
X798750Y487800D01*
X819912Y330708D02*
X820500Y330200D01*
X819912Y368808D02*
X914400Y368808D01*
X914400Y368300D01*
X307848Y202692D02*
X307848Y193548D01*
X307848Y190500D01*
X306578Y190500D01*
X307848Y202692D02*
X306578Y203200D01*
X348996Y152400D02*
X353822Y152400D01*
X329184Y172212D02*
X307848Y193548D01*
X329184Y172212D02*
X348996Y152400D01*
X307848Y204216D02*
X307848Y214884D01*
X306578Y215900D01*
X307848Y204216D02*
X306578Y203200D01*
X307848Y216408D02*
X307848Y228600D01*
X306578Y228600D01*
X307848Y216408D02*
X306578Y215900D01*
X382524Y166116D02*
X402336Y166116D01*
X382524Y166116D02*
X365760Y182880D01*
X339852Y182880D01*
X329184Y172212D01*
X402336Y166116D02*
X403680Y165100D01*
X762000Y93900D02*
X762000Y82296D01*
X728472Y48768D01*
X647700Y48768D02*
X615696Y48768D01*
X647700Y48768D02*
X728472Y48768D01*
X615696Y48768D02*
X609600Y54864D01*
X608250Y56000D01*
X731520Y402336D02*
X731520Y457200D01*
X731520Y402336D02*
X723900Y394716D01*
X723500Y393700D01*
X725424Y92964D02*
X736092Y92964D01*
X725424Y92964D02*
X710184Y77724D01*
X710184Y64008D01*
X702564Y56388D01*
X697992Y56388D01*
X736092Y92964D02*
X736600Y93900D01*
X697992Y56388D02*
X697150Y56000D01*
X659892Y94488D02*
X635508Y94488D01*
X635000Y93900D01*
X659892Y94488D02*
X660400Y93900D01*
X557784Y94488D02*
X557784Y97536D01*
X551688Y103632D01*
X551688Y144780D02*
X551688Y163068D01*
X551688Y144780D02*
X551688Y103632D01*
X551688Y163068D02*
X553212Y164592D01*
X589788Y164592D01*
X591312Y163068D01*
X591312Y129540D01*
X576072Y114300D01*
X576072Y102108D01*
X583692Y94488D01*
X558800Y93900D02*
X557784Y94488D01*
X583692Y94488D02*
X584200Y93900D01*
X519684Y54864D02*
X519684Y48768D01*
X544068Y79248D02*
X557784Y92964D01*
X519350Y56000D02*
X519684Y54864D01*
X557784Y92964D02*
X558800Y93900D01*
X585216Y94488D02*
X633984Y94488D01*
X635000Y93900D01*
X585216Y94488D02*
X584200Y93900D01*
X510540Y207264D02*
X510540Y297180D01*
X510540Y207264D02*
X553212Y164592D01*
X510540Y297180D02*
X509150Y298450D01*
X583692Y345948D02*
X583692Y393192D01*
X583692Y345948D02*
X568452Y330708D01*
X533400Y330708D01*
X519684Y316992D01*
X498348Y316992D01*
X495300Y313944D01*
X495300Y307848D01*
X504444Y298704D01*
X509016Y298704D01*
X583692Y393192D02*
X584200Y394100D01*
X509016Y298704D02*
X509150Y298450D01*
X483108Y381000D02*
X483108Y393192D01*
X483108Y381000D02*
X533400Y330708D01*
X483108Y393192D02*
X482600Y393700D01*
X687324Y56388D02*
X696468Y56388D01*
X687324Y56388D02*
X685800Y57912D01*
X696468Y56388D02*
X697150Y56000D01*
X728472Y457200D02*
X731520Y457200D01*
X728472Y457200D02*
X720852Y464820D01*
X688848Y464820D01*
X685800Y461772D01*
X685800Y452628D01*
X627888Y394716D01*
X585216Y394716D01*
X731520Y457200D02*
X731610Y457200D01*
X585216Y394716D02*
X584200Y394100D01*
X409956Y164592D02*
X403860Y164592D01*
X409956Y164592D02*
X429768Y144780D01*
X483108Y144780D01*
X492252Y153924D01*
X492252Y156972D01*
X495300Y160020D01*
X505968Y160020D01*
X509016Y156972D01*
X509016Y146304D01*
X510540Y144780D01*
X551688Y144780D01*
X403860Y164592D02*
X403680Y165100D01*
X426720Y524256D02*
X429768Y524256D01*
D39*
X519684Y48768D03*
X544068Y79248D03*
X685800Y57912D03*
X647700Y48768D03*
X429768Y524256D03*
D38*
X669036Y292608D02*
X690372Y292608D01*
X690950Y292100D01*
X669036Y292608D02*
X667800Y292100D01*
X483108Y152400D02*
X477450Y152400D01*
X483108Y152400D02*
X499872Y169164D01*
X507492Y169164D01*
X515112Y176784D01*
X515750Y177800D01*
X515112Y161544D02*
X515112Y152400D01*
X515112Y161544D02*
X507492Y169164D01*
X515112Y152400D02*
X515800Y152400D01*
X509016Y323088D02*
X499872Y323088D01*
X486156Y309372D01*
X486156Y254508D01*
X509016Y323088D02*
X509150Y323850D01*
X486156Y254508D02*
X485960Y254000D01*
X486156Y252984D02*
X486156Y216408D01*
X485960Y215900D01*
X486156Y252984D02*
X485960Y254000D01*
X515112Y185928D02*
X515112Y178308D01*
X515112Y185928D02*
X486156Y214884D01*
X515112Y178308D02*
X515750Y177800D01*
X486156Y214884D02*
X485960Y215900D01*
X653796Y292608D02*
X653796Y329184D01*
X652600Y330200D01*
X653796Y292608D02*
X653000Y292100D01*
X528828Y310896D02*
X510540Y310896D01*
X528828Y310896D02*
X573024Y266700D01*
X609600Y266700D01*
X510540Y310896D02*
X509150Y311150D01*
X633984Y291084D02*
X652272Y291084D01*
X633984Y291084D02*
X609600Y266700D01*
X652272Y291084D02*
X653000Y292100D01*
X462350Y152400D02*
X448056Y152400D01*
X435864Y164592D01*
X434520Y165100D01*
X495300Y152400D02*
X500200Y152400D01*
X495300Y152400D02*
X457200Y114300D01*
X370332Y114300D02*
X355600Y114300D01*
X370332Y114300D02*
X457200Y114300D01*
X359664Y176784D02*
X355092Y176784D01*
X359664Y176784D02*
X370332Y166116D01*
X370332Y114300D01*
X355092Y176784D02*
X353822Y177800D01*
X355600Y114300D02*
X356616Y114300D01*
X304800Y284988D02*
X301752Y284988D01*
X269748Y316992D01*
X266700Y316992D01*
X304800Y284988D02*
X304800Y284390D01*
X266700Y316992D02*
X265938Y317500D01*
X294132Y254508D02*
X321564Y254508D01*
X294132Y254508D02*
X269748Y278892D01*
X266700Y278892D01*
X321564Y254508D02*
X322500Y254000D01*
X266700Y278892D02*
X265938Y279400D01*
X591312Y495300D02*
X591312Y524256D01*
X591312Y495300D02*
X591312Y483108D01*
X591312Y524256D02*
X585216Y530352D01*
X585216Y539496D01*
X591312Y483108D02*
X591850Y482600D01*
X585216Y539496D02*
X584200Y539700D01*
X673100Y495300D02*
X741600Y495300D01*
X673100Y495300D02*
X591312Y495300D01*
X400812Y647700D02*
X400812Y653796D01*
X368808Y685800D01*
X400812Y647700D02*
X401500Y647700D01*
X368808Y685800D02*
X368300Y685800D01*
X495300Y547116D02*
X557784Y547116D01*
X566928Y556260D01*
X588264Y556260D01*
X595884Y548640D01*
X595884Y541020D01*
X596900Y539700D01*
X402336Y640080D02*
X402336Y647700D01*
X402336Y640080D02*
X495300Y547116D01*
X402336Y647700D02*
X401500Y647700D01*
X495300Y547116D02*
X495300Y546100D01*
X533400Y475488D02*
X569976Y475488D01*
X576072Y481584D01*
X533400Y475488D02*
X533400Y474800D01*
X576072Y481584D02*
X576550Y482600D01*
X496824Y437388D02*
X403860Y437388D01*
X496824Y437388D02*
X533400Y473964D01*
X403860Y437388D02*
X402844Y436880D01*
X533400Y473964D02*
X533400Y474800D01*
X388620Y502920D02*
X364236Y502920D01*
X356616Y502920D01*
X388620Y502920D02*
X406400Y520700D01*
X356616Y502920D02*
X355600Y502890D01*
X359664Y477012D02*
X359664Y441960D01*
X359664Y477012D02*
X364236Y481584D01*
X364236Y502920D01*
X359664Y441960D02*
X359156Y441706D01*
X228600Y594360D02*
X228600Y601900D01*
X228600Y594360D02*
X263652Y559308D01*
X268224Y559308D01*
X268478Y558800D01*
X185928Y559308D02*
X152400Y559308D01*
X185928Y559308D02*
X220980Y594360D01*
X228600Y594360D01*
X152400Y559308D02*
X152400Y558800D01*
X838200Y676656D02*
X844296Y676656D01*
X909828Y611124D01*
X918972Y611124D01*
X928116Y620268D01*
X928116Y637032D01*
X938784Y647700D01*
X838200Y676656D02*
X838200Y678090D01*
X938784Y647700D02*
X939800Y647700D01*
X731520Y60960D02*
X725424Y60960D01*
X731520Y60960D02*
X748284Y77724D01*
X748284Y115824D01*
X912876Y280416D01*
X917448Y280416D01*
X928116Y291084D01*
X928116Y422148D01*
X938784Y432816D01*
X943356Y432816D01*
X954024Y443484D01*
X954024Y573024D01*
X941832Y585216D01*
X935736Y585216D01*
X925068Y595884D01*
X925068Y605028D01*
X918972Y611124D01*
X725424Y60960D02*
X725250Y61000D01*
X861060Y615696D02*
X800100Y676656D01*
X800100Y678090D01*
X731520Y56388D02*
X725424Y56388D01*
X731520Y56388D02*
X754380Y79248D01*
X754380Y83820D01*
X725424Y56388D02*
X725250Y56000D01*
D39*
X861060Y615696D03*
X754380Y83820D03*
D38*
X251460Y79248D02*
X240792Y79248D01*
X713232Y147828D02*
X731520Y147828D01*
X736092Y152400D01*
X252650Y78700D02*
X251460Y79248D01*
X736092Y152400D02*
X736600Y152400D01*
X731520Y67056D02*
X725424Y67056D01*
X731520Y67056D02*
X743712Y79248D01*
X743712Y121920D01*
X725424Y67056D02*
X725250Y66000D01*
X777240Y289560D02*
X781812Y289560D01*
X789432Y281940D01*
X789432Y204216D01*
X737616Y152400D01*
X776050Y289600D02*
X777240Y289560D01*
X737616Y152400D02*
X736600Y152400D01*
X787908Y496824D02*
X798576Y496824D01*
X787908Y496824D02*
X780288Y489204D01*
X798576Y496824D02*
X798750Y497800D01*
D39*
X240792Y79248D03*
X713232Y147828D03*
X743712Y121920D03*
X780288Y489204D03*
D38*
X272796Y571500D02*
X268478Y571500D01*
X272796Y571500D02*
X281940Y562356D01*
X281940Y554736D01*
X280416Y553212D01*
X220980Y553212D01*
X216408Y557784D01*
X215900Y558800D01*
X519684Y70104D02*
X525780Y70104D01*
X536448Y59436D01*
X536448Y56388D01*
X541020Y51816D01*
X583692Y51816D01*
X601980Y70104D01*
X608076Y70104D01*
X519684Y70104D02*
X519350Y71000D01*
X608076Y70104D02*
X608250Y71000D01*
X821436Y256032D02*
X821436Y266700D01*
X821436Y256032D02*
X822960Y254508D01*
X725424Y108204D02*
X697992Y80772D01*
X697992Y71628D01*
X820600Y266700D02*
X821436Y266700D01*
X697992Y71628D02*
X697150Y71000D01*
X615696Y71628D02*
X609600Y71628D01*
X615696Y71628D02*
X630936Y86868D01*
X681228Y86868D01*
X697992Y103632D01*
X609600Y71628D02*
X608250Y71000D01*
X291084Y542544D02*
X280416Y553212D01*
X470916Y118872D02*
X518160Y71628D01*
X519350Y71000D01*
D39*
X822960Y254508D03*
X725424Y108204D03*
X697992Y103632D03*
X291084Y542544D03*
X470916Y118872D03*
D38*
X871728Y278892D02*
X871728Y291084D01*
X871728Y278892D02*
X879348Y271272D01*
X879348Y262128D01*
X745236Y128016D01*
X731520Y128016D01*
X688848Y85344D01*
X688848Y74676D02*
X688848Y68580D01*
X688848Y74676D02*
X688848Y85344D01*
X688848Y68580D02*
X690372Y67056D01*
X696468Y67056D01*
X871728Y291084D02*
X871400Y292100D01*
X696468Y67056D02*
X697150Y66000D01*
X266700Y254508D02*
X266700Y266700D01*
X266700Y254508D02*
X265938Y254000D01*
X265938Y266700D02*
X266700Y266700D01*
X519684Y65532D02*
X525780Y65532D01*
X533400Y57912D01*
X533400Y54864D01*
X539496Y48768D01*
X585216Y48768D01*
X601980Y65532D01*
X608076Y65532D01*
X519684Y65532D02*
X519350Y66000D01*
X608076Y65532D02*
X608250Y66000D01*
X266700Y173736D02*
X266700Y252984D01*
X266700Y173736D02*
X373380Y67056D01*
X518160Y67056D01*
X266700Y252984D02*
X265938Y254000D01*
X518160Y67056D02*
X519350Y66000D01*
X623316Y74676D02*
X688848Y74676D01*
X623316Y74676D02*
X615696Y67056D01*
X609600Y67056D01*
X608250Y66000D01*
X847344Y591312D02*
X762000Y676656D01*
X762000Y678090D01*
X647700Y60960D02*
X637032Y60960D01*
X937260Y178308D02*
X937260Y224028D01*
X950976Y237744D01*
X950976Y332232D01*
X940308Y342900D01*
X637032Y60960D02*
X636350Y61000D01*
X939800Y342900D02*
X940308Y342900D01*
D39*
X847344Y591312D03*
X647700Y60960D03*
X937260Y178308D03*
D38*
X723900Y662940D02*
X723900Y678090D01*
X723900Y662940D02*
X838200Y548640D01*
X842772Y481584D02*
X851916Y481584D01*
X914400Y419100D01*
X655320Y54864D02*
X637032Y54864D01*
X636350Y56000D01*
D39*
X838200Y548640D03*
X842772Y481584D03*
X655320Y54864D03*
D38*
X251460Y73152D02*
X219456Y73152D01*
X217932Y74676D01*
X637032Y129540D02*
X659892Y152400D01*
X252650Y73700D02*
X251460Y73152D01*
X659892Y152400D02*
X660400Y152400D01*
X635508Y65532D02*
X629412Y65532D01*
X624840Y60960D01*
X624840Y59436D01*
X635508Y65532D02*
X636350Y66000D01*
X769620Y294132D02*
X775716Y294132D01*
X763524Y288036D02*
X749808Y274320D01*
X763524Y288036D02*
X769620Y294132D01*
X749808Y274320D02*
X749808Y240792D01*
X661416Y152400D01*
X775716Y294132D02*
X776050Y294600D01*
X661416Y152400D02*
X660400Y152400D01*
X792480Y492252D02*
X798576Y492252D01*
X792480Y492252D02*
X780288Y480060D01*
X763524Y288036D02*
X765048Y286512D01*
X798576Y492252D02*
X798750Y492800D01*
D39*
X217932Y74676D03*
X637032Y129540D03*
X624840Y59436D03*
X780288Y480060D03*
X765048Y286512D03*
D38*
X853440Y509016D02*
X685800Y676656D01*
X685800Y678090D01*
X560832Y60960D02*
X548640Y60960D01*
X547450Y61000D01*
D39*
X853440Y509016D03*
X560832Y60960D03*
D38*
X672084Y678180D02*
X673608Y678180D01*
X672084Y678180D02*
X647700Y678180D01*
X673608Y678180D02*
X681228Y685800D01*
X740664Y685800D01*
X850392Y576072D01*
X868680Y576072D01*
X912876Y531876D01*
X918972Y531876D01*
X928116Y522732D01*
X928116Y516636D01*
X938784Y505968D01*
X944880Y505968D01*
X950976Y499872D01*
X950976Y481584D01*
X940308Y470916D01*
X647700Y678090D02*
X647700Y678180D01*
X940308Y470916D02*
X939800Y469900D01*
X547116Y56388D02*
X541020Y56388D01*
X539496Y57912D01*
X539496Y74676D01*
X537972Y76200D01*
X537972Y102108D01*
X710184Y640080D02*
X672084Y678180D01*
X547116Y56388D02*
X547450Y56000D01*
D39*
X537972Y102108D03*
X710184Y640080D03*
D38*
X556260Y65532D02*
X548640Y65532D01*
X556260Y65532D02*
X571500Y80772D01*
X571500Y152400D01*
X547450Y66000D02*
X548640Y65532D01*
X609600Y676656D02*
X635508Y676656D01*
X644652Y667512D01*
X673608Y667512D01*
X835152Y505968D01*
X835152Y495300D01*
X833628Y493776D01*
X827532Y493776D01*
X609600Y676656D02*
X609600Y678090D01*
X827532Y493776D02*
X826850Y492800D01*
X929640Y495300D02*
X939800Y495300D01*
X929640Y495300D02*
X918972Y484632D01*
X858012Y484632D01*
X847344Y495300D01*
X835152Y495300D01*
X667512Y580644D02*
X571500Y676656D01*
X813816Y490728D02*
X818388Y490728D01*
X821436Y487680D01*
X826008Y487680D01*
X571500Y676656D02*
X571500Y678090D01*
X826008Y487680D02*
X826850Y487800D01*
X929640Y445008D02*
X938784Y445008D01*
X929640Y445008D02*
X915924Y458724D01*
X879348Y458724D01*
X850392Y487680D01*
X827532Y487680D01*
X938784Y445008D02*
X939800Y444500D01*
X827532Y487680D02*
X826850Y487800D01*
D39*
X667512Y580644D03*
X813816Y490728D03*
D38*
X755904Y509016D02*
X755904Y539496D01*
X755904Y509016D02*
X755904Y495300D01*
X755904Y539496D02*
X749300Y546100D01*
X755904Y495300D02*
X757000Y495300D01*
X819912Y248412D02*
X819912Y242316D01*
X819912Y248412D02*
X816864Y251460D01*
X816864Y257556D01*
X812292Y262128D01*
X812292Y400812D01*
X757428Y455676D01*
X757428Y495300D01*
X819912Y242316D02*
X820600Y241300D01*
X757428Y495300D02*
X757000Y495300D01*
X813816Y498348D02*
X826008Y498348D01*
X813816Y498348D02*
X803148Y509016D01*
X755904Y509016D01*
X826008Y498348D02*
X826850Y497800D01*
X559308Y676656D02*
X533400Y676656D01*
X559308Y676656D02*
X733044Y502920D01*
X746760Y502920D01*
X749808Y499872D01*
X749808Y384048D02*
X749808Y358140D01*
X749808Y384048D02*
X749808Y499872D01*
X749808Y358140D02*
X739140Y347472D01*
X739140Y297180D01*
X740664Y295656D01*
X746760Y295656D01*
X533400Y676656D02*
X533400Y678090D01*
X746760Y295656D02*
X747950Y294600D01*
X801624Y376428D02*
X806196Y376428D01*
X801624Y376428D02*
X794004Y384048D01*
X749808Y384048D01*
D39*
X806196Y376428D03*
D38*
X629412Y542544D02*
X495300Y676656D01*
X495300Y678090D01*
X748284Y352044D02*
X748284Y300228D01*
X748284Y352044D02*
X754380Y358140D01*
X754380Y377952D01*
X757428Y381000D01*
X792480Y381000D01*
X806196Y367284D01*
X748284Y300228D02*
X747950Y299600D01*
D39*
X629412Y542544D03*
X806196Y367284D03*
D38*
X740664Y291084D02*
X707136Y291084D01*
X740664Y291084D02*
X742188Y289560D01*
X746760Y289560D01*
X707136Y291084D02*
X706050Y292100D01*
X746760Y289560D02*
X747950Y289600D01*
X748284Y289560D02*
X754380Y289560D01*
X765048Y300228D01*
X765048Y358140D01*
X774192Y367284D01*
X748284Y289560D02*
X747950Y289600D01*
X774192Y367284D02*
X774700Y368300D01*
X457200Y676656D02*
X431292Y676656D01*
X422148Y667512D01*
X405384Y667512D01*
X402336Y670560D01*
X402336Y673608D02*
X402336Y694944D01*
X402336Y673608D02*
X402336Y670560D01*
X402336Y694944D02*
X411480Y704088D01*
X845820Y704088D01*
X876300Y673608D01*
X876300Y664464D01*
X893064Y647700D01*
X914400Y647700D01*
X457200Y676656D02*
X457200Y678090D01*
X286512Y73152D02*
X281940Y73152D01*
X286512Y73152D02*
X289560Y70104D01*
X289560Y67056D01*
X284988Y62484D01*
X262128Y62484D01*
X390144Y673608D02*
X402336Y673608D01*
X280750Y73700D02*
X281940Y73152D01*
D39*
X262128Y62484D03*
X390144Y673608D03*
D38*
X419100Y678090D02*
X419100Y681228D01*
X411480Y688848D01*
X411480Y699516D01*
X413004Y701040D01*
X844296Y701040D01*
X873252Y672084D01*
X873252Y662940D01*
X914400Y621792D01*
X914400Y622300D01*
X280416Y68580D02*
X269748Y68580D01*
X408432Y673608D02*
X416052Y673608D01*
X419100Y676656D01*
X280750Y68700D02*
X280416Y68580D01*
X419100Y676656D02*
X419100Y678090D01*
D39*
X269748Y68580D03*
X408432Y673608D03*
D38*
X806196Y277368D02*
X806196Y266700D01*
X835152Y277368D02*
X844296Y277368D01*
X854964Y266700D01*
X806196Y266700D02*
X805000Y266700D01*
X854964Y266700D02*
X855800Y266700D01*
X854964Y288036D02*
X854964Y291084D01*
X854964Y288036D02*
X844296Y277368D01*
X854964Y291084D02*
X855800Y292100D01*
X288036Y77724D02*
X281940Y77724D01*
X288036Y77724D02*
X292608Y73152D01*
X292608Y65532D01*
X283464Y56388D01*
X18288Y56388D01*
X13716Y60960D01*
X13716Y118872D01*
X44196Y149352D02*
X45720Y150876D01*
X44196Y149352D02*
X13716Y118872D01*
X280750Y78700D02*
X281940Y77724D01*
X47100Y151300D02*
X45720Y150876D01*
X115824Y77724D02*
X120396Y77724D01*
X115824Y77724D02*
X44196Y149352D01*
X120396Y77724D02*
X121100Y77300D01*
X47100Y151300D02*
X44196Y149352D01*
X182880Y138684D02*
X228600Y138684D01*
X182880Y138684D02*
X121920Y77724D01*
X228600Y138684D02*
X228600Y139700D01*
X121920Y77724D02*
X121100Y77300D01*
X931164Y172212D02*
X931164Y227076D01*
X931164Y172212D02*
X795528Y36576D01*
X321564Y36576D01*
X292608Y65532D01*
D39*
X806196Y277368D03*
X835152Y277368D03*
X931164Y227076D03*
D38*
X525780Y60960D02*
X519684Y60960D01*
X525780Y60960D02*
X530352Y56388D01*
X530352Y53340D01*
X537972Y45720D01*
X586740Y45720D01*
X597408Y56388D02*
X601980Y60960D01*
X597408Y56388D02*
X586740Y45720D01*
X601980Y60960D02*
X608076Y60960D01*
X519684Y60960D02*
X519350Y61000D01*
X608076Y60960D02*
X608250Y61000D01*
X263652Y83820D02*
X252984Y83820D01*
X263652Y83820D02*
X269748Y77724D01*
X376428Y60960D02*
X518160Y60960D01*
X252984Y83820D02*
X252650Y83700D01*
X518160Y60960D02*
X519350Y61000D01*
X806196Y216408D02*
X819912Y230124D01*
X833628Y230124D01*
X845820Y242316D02*
X870204Y266700D01*
X845820Y242316D02*
X833628Y230124D01*
X806196Y216408D02*
X805000Y215900D01*
X870204Y266700D02*
X871400Y266700D01*
X806196Y246888D02*
X806196Y242316D01*
X806196Y246888D02*
X810768Y251460D01*
X806196Y242316D02*
X805000Y241300D01*
X702564Y60960D02*
X697992Y60960D01*
X702564Y60960D02*
X707136Y65532D01*
X707136Y80772D01*
X725424Y99060D01*
X697992Y60960D02*
X697150Y61000D01*
X783336Y277368D02*
X777240Y283464D01*
X776050Y284600D01*
X786384Y502920D02*
X798576Y502920D01*
X798750Y502800D01*
X597408Y56388D02*
X611124Y42672D01*
X726948Y42672D01*
X850392Y166116D01*
X850900Y165100D01*
D39*
X269748Y77724D03*
X376428Y60960D03*
X810768Y251460D03*
X725424Y99060D03*
X783336Y277368D03*
X786384Y502920D03*
X845820Y242316D03*
D38*
X844296Y533400D02*
X844296Y557784D01*
X844296Y533400D02*
X843200Y533400D01*
X844296Y557784D02*
X843200Y558800D01*
X844296Y559308D02*
X854964Y569976D01*
X844296Y559308D02*
X843200Y558800D01*
X457200Y693420D02*
X419100Y693420D01*
X419100Y693510D01*
X457200Y693420D02*
X495300Y693420D01*
X457200Y693420D02*
X457200Y693510D01*
X495300Y693420D02*
X533400Y693420D01*
X495300Y693420D02*
X495300Y693510D01*
X533400Y693420D02*
X571500Y693420D01*
X533400Y693420D02*
X533400Y693510D01*
X571500Y693420D02*
X601980Y693420D01*
X609600Y693420D01*
X571500Y693420D02*
X571500Y693510D01*
X609600Y693420D02*
X647700Y693420D01*
X609600Y693420D02*
X609600Y693510D01*
X647700Y693420D02*
X685800Y693420D01*
X647700Y693420D02*
X647700Y693510D01*
X685800Y693420D02*
X723900Y693420D01*
X685800Y693420D02*
X685800Y693510D01*
X723900Y693420D02*
X762000Y693420D01*
X723900Y693420D02*
X723900Y693510D01*
X762000Y693420D02*
X800100Y693420D01*
X762000Y693420D02*
X762000Y693510D01*
X800100Y693420D02*
X838200Y693420D01*
X800100Y693420D02*
X800100Y693510D01*
X822960Y502920D02*
X826008Y502920D01*
X822960Y502920D02*
X661416Y664464D01*
X609600Y664464D01*
X601980Y672084D01*
X601980Y693420D01*
X826008Y502920D02*
X826850Y502800D01*
X853440Y678180D02*
X838200Y693420D01*
X838200Y693510D01*
X201168Y318516D02*
X152400Y318516D01*
X201168Y318516D02*
X216408Y318516D01*
X216662Y317500D01*
X152400Y317500D02*
X152400Y318516D01*
X269748Y536448D02*
X269748Y545592D01*
X269748Y536448D02*
X269748Y533400D01*
X268478Y533400D01*
X269748Y545592D02*
X268478Y546100D01*
X297180Y509016D02*
X315468Y509016D01*
X297180Y509016D02*
X269748Y536448D01*
X315468Y509016D02*
X315722Y508000D01*
X355092Y202692D02*
X355092Y190500D01*
X353822Y190500D01*
X355092Y202692D02*
X353822Y203200D01*
X266700Y292608D02*
X266700Y304800D01*
X266700Y292608D02*
X265938Y292100D01*
X265938Y304800D02*
X266700Y304800D01*
X359664Y432816D02*
X359664Y435864D01*
X359664Y432816D02*
X359156Y431800D01*
X359664Y435864D02*
X359156Y436880D01*
X403860Y422148D02*
X411480Y422148D01*
X413004Y423672D01*
X413004Y429768D01*
X411480Y431292D01*
X403860Y431292D01*
X403860Y422148D02*
X402844Y421894D01*
X403860Y431292D02*
X402844Y431800D01*
X385572Y431292D02*
X359664Y431292D01*
X393192Y423672D02*
X394716Y422148D01*
X393192Y423672D02*
X385572Y431292D01*
X394716Y422148D02*
X402336Y422148D01*
X359664Y431292D02*
X359156Y431800D01*
X402336Y422148D02*
X402844Y421894D01*
X265938Y304800D02*
X262128Y304800D01*
X252984Y313944D01*
X252984Y318516D02*
X252984Y374904D01*
X252984Y318516D02*
X252984Y313944D01*
X252984Y374904D02*
X309372Y431292D01*
X316992Y431292D02*
X358140Y431292D01*
X316992Y431292D02*
X309372Y431292D01*
X358140Y431292D02*
X359156Y431800D01*
X359664Y204216D02*
X355092Y204216D01*
X359664Y204216D02*
X393192Y237744D01*
X393192Y423672D01*
X355092Y204216D02*
X353822Y203200D01*
X316992Y431292D02*
X316992Y507492D01*
X315722Y508000D01*
X252984Y318516D02*
X248412Y318516D01*
X637032Y70104D02*
X664464Y70104D01*
X682752Y51816D01*
X704088Y51816D01*
X716280Y64008D01*
X716280Y67056D01*
X719328Y70104D01*
X723900Y70104D01*
X637032Y70104D02*
X636350Y71000D01*
X723900Y70104D02*
X725250Y71000D01*
X806196Y304800D02*
X806196Y329184D01*
X806196Y304800D02*
X805100Y304800D01*
X806196Y329184D02*
X805100Y330200D01*
X754380Y284988D02*
X748284Y284988D01*
X754380Y284988D02*
X768096Y298704D01*
X768096Y301752D01*
X771144Y304800D01*
X805100Y304800D01*
X748284Y284988D02*
X747950Y284600D01*
X228600Y80772D02*
X204216Y80772D01*
X203200Y81200D01*
X228600Y81200D02*
X228600Y80772D01*
X268224Y83820D02*
X280416Y83820D01*
X268224Y83820D02*
X263652Y88392D01*
X251460Y88392D02*
X234696Y88392D01*
X251460Y88392D02*
X263652Y88392D01*
X234696Y88392D02*
X228600Y82296D01*
X280416Y83820D02*
X280750Y83700D01*
X228600Y82296D02*
X228600Y81200D01*
X559308Y108204D02*
X566928Y100584D01*
X566928Y88392D01*
X563880Y85344D02*
X548640Y70104D01*
X563880Y85344D02*
X566928Y88392D01*
X559308Y108204D02*
X558800Y109300D01*
X547450Y71000D02*
X548640Y70104D01*
X736092Y109728D02*
X736092Y117348D01*
X733044Y120396D01*
X762000Y120396D02*
X762000Y109300D01*
X736600Y109300D02*
X736092Y109728D01*
X633984Y109728D02*
X630936Y109728D01*
X585216Y109728D01*
X584200Y109300D01*
X633984Y109728D02*
X635000Y109300D01*
X635508Y109728D02*
X659892Y109728D01*
X660400Y109300D01*
X635508Y109728D02*
X635000Y109300D01*
X672084Y120396D02*
X714756Y120396D01*
X672084Y120396D02*
X661416Y109728D01*
X660400Y109300D01*
X565404Y83820D02*
X563880Y85344D01*
X292608Y83820D02*
X281940Y83820D01*
X280750Y83700D01*
X746760Y268224D02*
X746760Y283464D01*
X746760Y268224D02*
X630936Y152400D01*
X630936Y109728D01*
X746760Y283464D02*
X747950Y284600D01*
X635000Y109300D02*
X630936Y109728D01*
X719328Y77724D02*
X719328Y70104D01*
X248412Y153924D02*
X248412Y245364D01*
X248412Y153924D02*
X251460Y150876D01*
X251460Y88392D01*
X800100Y335280D02*
X800100Y359664D01*
X800100Y335280D02*
X804672Y330708D01*
X805100Y330200D01*
D39*
X854964Y569976D03*
X853440Y678180D03*
X201168Y318516D03*
X248412Y318516D03*
X733044Y120396D03*
X762000Y120396D03*
X714756Y120396D03*
X565404Y83820D03*
X292608Y83820D03*
X719328Y77724D03*
X248412Y245364D03*
X800100Y359664D03*
D38*
X355092Y283464D02*
X355092Y246888D01*
X339852Y231648D01*
X339852Y225552D01*
X348996Y216408D01*
X353568Y216408D01*
X355092Y283464D02*
X355600Y284390D01*
X353568Y216408D02*
X353822Y215900D01*
X329184Y300228D02*
X321564Y300228D01*
X292608Y329184D01*
X266700Y329184D01*
X329184Y300228D02*
X330200Y299810D01*
X266700Y329184D02*
X265938Y330200D01*
X304800Y298704D02*
X318516Y298704D01*
X324612Y292608D01*
X348996Y292608D01*
X355092Y298704D01*
X304800Y298704D02*
X304800Y299810D01*
X355092Y298704D02*
X355600Y299810D01*
X345948Y382524D02*
X335280Y393192D01*
X345948Y361188D02*
X345948Y309372D01*
X355092Y300228D01*
X335280Y393192D02*
X335190Y393700D01*
X355092Y300228D02*
X355600Y299810D01*
X243840Y501396D02*
X228600Y501396D01*
X243840Y501396D02*
X256032Y513588D01*
X280416Y513588D01*
X297180Y496824D01*
X228600Y500290D02*
X228600Y501396D01*
X928116Y672084D02*
X938784Y672084D01*
X928116Y672084D02*
X917448Y661416D01*
X888492Y661416D01*
X882396Y667512D01*
X938784Y672084D02*
X939800Y673100D01*
D39*
X345948Y382524D03*
X345948Y361188D03*
X297180Y496824D03*
X882396Y667512D03*
D38*
X388620Y292608D02*
X381000Y284988D01*
X388620Y292608D02*
X388620Y327660D01*
X310896Y405384D01*
X310896Y419100D01*
X381000Y284988D02*
X381000Y284390D01*
X310896Y419100D02*
X309790Y419100D01*
X316992Y283464D02*
X329184Y283464D01*
X316992Y283464D02*
X310896Y277368D01*
X284988Y277368D01*
X275844Y286512D01*
X254508Y286512D01*
X242316Y298704D01*
X242316Y411480D01*
X266700Y435864D01*
X330200Y284390D02*
X329184Y283464D01*
X266700Y435864D02*
X266700Y436790D01*
X274320Y445008D02*
X274320Y490728D01*
X274320Y445008D02*
X266700Y437388D01*
X266700Y436790D01*
X292608Y405384D02*
X310896Y405384D01*
X292608Y405384D02*
X278892Y391668D01*
D39*
X274320Y490728D03*
X278892Y391668D03*
D38*
X381000Y298704D02*
X364236Y281940D01*
X364236Y237744D01*
X355092Y228600D01*
X381000Y298704D02*
X381000Y299810D01*
X355092Y228600D02*
X353822Y228600D01*
X265176Y516636D02*
X228600Y516636D01*
X265176Y516636D02*
X268224Y519684D01*
X228600Y516636D02*
X228600Y515710D01*
X268224Y519684D02*
X268478Y520700D01*
X266700Y505968D02*
X266700Y452210D01*
X266700Y505968D02*
X268224Y507492D01*
X268478Y508000D01*
X352044Y414528D02*
X352044Y394716D01*
X352044Y414528D02*
X358140Y420624D01*
X352044Y394716D02*
X350610Y393700D01*
X358140Y420624D02*
X359156Y421894D01*
X342900Y419100D02*
X325210Y419100D01*
X342900Y419100D02*
X350520Y426720D01*
X359156Y426720D01*
X597408Y457200D02*
X678090Y457200D01*
X597408Y457200D02*
X585216Y445008D01*
X584200Y444100D01*
X557784Y417576D02*
X557784Y336804D01*
X557784Y417576D02*
X583692Y443484D01*
X557784Y336804D02*
X557650Y336550D01*
X583692Y443484D02*
X584200Y444100D01*
X400812Y623316D02*
X400812Y633984D01*
X387096Y647700D01*
X400812Y623316D02*
X401500Y622300D01*
X387096Y647700D02*
X385900Y647700D01*
X342900Y647700D01*
X304800Y685800D01*
X280416Y710184D02*
X152400Y710184D01*
X280416Y710184D02*
X304800Y685800D01*
X152400Y710184D02*
X152400Y710550D01*
X597408Y463296D02*
X597408Y457200D01*
X597408Y463296D02*
X583692Y477012D01*
X583692Y489204D01*
X582168Y490728D01*
X547116Y490728D01*
X539496Y483108D01*
X527304Y483108D01*
X492252Y518160D01*
X492252Y536448D01*
X406908Y621792D01*
X402336Y621792D01*
X401500Y622300D01*
X957072Y696468D02*
X957072Y320040D01*
X957072Y696468D02*
X940308Y713232D01*
X854964Y713232D01*
X830580Y737616D01*
X74676Y737616D01*
X67056Y729996D01*
X67056Y690372D01*
X71628Y685800D01*
X131064Y685800D01*
X152400Y664464D01*
X152400Y661050D01*
D39*
X957072Y320040D03*
D38*
X940308Y597408D02*
X940308Y608076D01*
X950976Y618744D01*
X950976Y676656D01*
X940308Y687324D01*
X876300Y687324D01*
X829056Y734568D01*
X97536Y734568D01*
X76200Y713232D01*
X76200Y710550D01*
X939800Y596900D02*
X940308Y597408D01*
X900684Y667512D02*
X891540Y667512D01*
X827532Y731520D01*
X144780Y731520D01*
X128016Y714756D01*
X128016Y711708D01*
X127000Y710550D01*
D39*
X900684Y667512D03*
D38*
X938784Y291084D02*
X938784Y280416D01*
X925068Y266700D01*
X925068Y219456D01*
X832104Y126492D01*
X815340Y126492D01*
X728472Y39624D01*
X388620Y39624D01*
X254508Y173736D01*
X254508Y248412D01*
X245364Y257556D01*
X245364Y291084D01*
X233172Y303276D01*
X233172Y448056D01*
X76200Y605028D01*
X76200Y661050D01*
X938784Y291084D02*
X939800Y292100D01*
X902208Y278892D02*
X902208Y345948D01*
X912876Y356616D01*
X917448Y356616D01*
X925068Y364236D01*
X925068Y373380D01*
X915924Y382524D01*
X909828Y382524D01*
X826008Y466344D01*
X388620Y637032D02*
X147828Y637032D01*
X128016Y656844D01*
X128016Y659892D01*
X127000Y661050D01*
D39*
X902208Y278892D03*
X826008Y466344D03*
X388620Y637032D03*
D38*
X957072Y310896D02*
X957072Y294132D01*
X957072Y310896D02*
X963168Y316992D01*
X963168Y716280D01*
X938784Y740664D01*
X73152Y740664D01*
X51816Y719328D01*
X51816Y711708D01*
X50800Y710550D01*
D39*
X957072Y294132D03*
D38*
X114300Y723900D02*
X102108Y711708D01*
X101600Y710550D01*
D39*
X114300Y723900D03*
D38*
X62484Y685800D02*
X62484Y672084D01*
X51816Y661416D01*
X50800Y661050D01*
D39*
X62484Y685800D03*
D38*
X387096Y621792D02*
X387096Y617220D01*
X387096Y585216D01*
X385900Y584200D01*
X387096Y621792D02*
X385900Y622300D01*
X387096Y617220D02*
X228600Y617220D01*
X228600Y617300D01*
X402336Y583692D02*
X431292Y583692D01*
X481584Y533400D01*
X402336Y583692D02*
X401500Y584200D01*
X481584Y533400D02*
X482600Y533400D01*
X533400Y509016D02*
X533400Y490400D01*
X533400Y509016D02*
X509016Y533400D01*
X508000Y533400D01*
M02*
