M48
;GenerationSoftware,Autodesk,EAGLE,9.7.0*%
;CreationDate,2021-03-30T03:13:25Z*%
FMAT,2
ICI,OFF
METRIC,TZ,000.000
T8C0.350
T7C0.730
T6C0.880
T5C1.020
T4C1.460
T3C1.480
T2C1.700
T1C2.690
%
G90
M71
T1
X82550Y10160
X95250Y13970
X95250Y6350
T2
X3810Y11430
X10810Y11430
T3
X85090Y16510
T4
X97790Y10160
T5
X93980Y31750
X91440Y34290
X93980Y34290
X91440Y36830
X93980Y36830
X91440Y39370
X93980Y39370
X91440Y41910
X93980Y41910
X91440Y44450
X93980Y44450
X91440Y46990
X93980Y46990
X91440Y49530
X93980Y49530
X91440Y52070
X93980Y52070
X91440Y54610
X93980Y54610
X91440Y57150
X93980Y57150
X91440Y24130
X93980Y59690
X91440Y62230
X93980Y62230
X91440Y64770
X93980Y64770
X91440Y67310
X93980Y67310
X91440Y69850
X93980Y69850
X91440Y72390
X93980Y72390
X91440Y59690
X93980Y24130
X91440Y26670
X93980Y26670
X91440Y29210
X93980Y29210
X91440Y31750
T6
X57150Y53970
X58420Y53970
X59690Y53970
T7
X50800Y53340
X40304Y25400
X48596Y25400
X48596Y21590
X40304Y21590
X49530Y54610
X48260Y53340
T8
X71476Y12040
X56540Y8382
X29261Y8382
X71933Y7772
X24841Y24536
X80010Y35966
X34595Y38252
X34595Y36119
X29718Y49682
X88240Y66751
X34900Y25451
X27889Y39167
X95707Y32004
X90068Y66751
X90221Y27889
X82601Y46634
X38862Y63703
X95707Y29413
X11430Y72390
X6248Y68580
X76200Y12040
X73304Y12040
X24841Y31852
X20117Y31852
X85344Y67818
X85496Y56998
X84582Y24232
X78638Y50292
X78334Y27737
X72542Y9906
X81077Y25146
X37643Y6096
X26975Y7772
X93116Y22708
X83515Y27737
X80620Y27737
X40843Y67361
X26975Y6858
X39014Y67361
X26213Y6248
X80620Y36728
X62941Y54254
X80620Y37643
X81382Y49073
X66751Y58064
X71018Y64008
X53797Y10211
X56083Y6096
X85344Y50902
X76505Y28651
X78029Y48006
X62484Y5944
X63703Y12954
X21793Y7468
X65532Y5486
X84277Y48158
X83820Y54864
X93726Y17831
X64770Y6096
X84734Y59131
X47092Y11887
X29108Y54254
X69799Y10363
X72542Y10820
X82296Y25451
X78029Y48920
X74371Y12192
X71323Y14783
X24079Y7925
X75438Y8382
X86106Y61570
X42977Y52426
X64770Y4877
X68580Y5791
X54407Y7925
X51968Y4877
X27432Y49073
M30