G04 EAGLE Gerber RS-274X export*
G75*
%MOMM*%
%FSLAX34Y34*%
%LPD*%
%INBottom Copper*%
%IPPOS*%
%AMOC8*
5,1,8,0,0,1.08239X$1,22.5*%
G01*
G04 Define Apertures*
%ADD10R,1.238000X1.238000*%
%ADD11C,1.238000*%
%ADD12C,2.190000*%
%ADD13C,2.220000*%
%ADD14C,1.388000*%
%ADD15C,1.620009*%
%ADD16C,0.152400*%
%ADD17C,0.756400*%
D10*
X403040Y215900D03*
D11*
X485960Y215900D03*
D10*
X485960Y254000D03*
D11*
X403040Y254000D03*
D12*
X977900Y101600D03*
D13*
X850900Y165100D03*
D10*
X508000Y533400D03*
D11*
X495300Y546100D03*
X482600Y533400D03*
D14*
X571500Y532760D02*
X571500Y546640D01*
X584200Y546640D02*
X584200Y532760D01*
X596900Y532760D02*
X596900Y546640D01*
D15*
X939800Y723900D03*
X914400Y723900D03*
X939800Y698500D03*
X914400Y698500D03*
X939800Y673100D03*
X914400Y673100D03*
X939800Y647700D03*
X914400Y647700D03*
X939800Y622300D03*
X914400Y622300D03*
X939800Y596900D03*
X914400Y596900D03*
X939800Y571500D03*
X914400Y571500D03*
X939800Y546100D03*
X914400Y546100D03*
X939800Y520700D03*
X914400Y520700D03*
X939800Y495300D03*
X914400Y495300D03*
X939800Y469900D03*
X914400Y469900D03*
X939800Y444500D03*
X914400Y444500D03*
X939800Y419100D03*
X914400Y419100D03*
X939800Y393700D03*
X914400Y393700D03*
X939800Y368300D03*
X914400Y368300D03*
X939800Y342900D03*
X914400Y342900D03*
X939800Y317500D03*
X914400Y317500D03*
X939800Y292100D03*
X914400Y292100D03*
X939800Y266700D03*
X914400Y266700D03*
X939800Y241300D03*
X914400Y241300D03*
D16*
X402336Y254508D02*
X348996Y254508D01*
X402336Y254508D02*
X403040Y254000D01*
D17*
X348996Y254508D03*
D16*
X519684Y54864D02*
X519684Y48768D01*
X537972Y73152D02*
X544068Y79248D01*
X537972Y73152D02*
X519684Y54864D01*
X667512Y57912D02*
X685800Y57912D01*
X667512Y57912D02*
X658368Y48768D01*
X647700Y48768D02*
X562356Y48768D01*
X647700Y48768D02*
X658368Y48768D01*
X562356Y48768D02*
X537972Y73152D01*
X864108Y100584D02*
X976884Y100584D01*
X864108Y100584D02*
X821436Y57912D01*
X685800Y57912D01*
X976884Y100584D02*
X977900Y101600D01*
X556260Y524256D02*
X429768Y524256D01*
X556260Y524256D02*
X571500Y539496D01*
X571500Y539700D01*
D17*
X519684Y48768D03*
X544068Y79248D03*
X685800Y57912D03*
X647700Y48768D03*
X429768Y524256D03*
D16*
X861060Y507492D02*
X861060Y615696D01*
X861060Y507492D02*
X912876Y455676D01*
X918972Y455676D01*
X928116Y446532D01*
X928116Y379476D01*
X938784Y368808D01*
X939800Y368300D01*
X772668Y83820D02*
X754380Y83820D01*
X772668Y83820D02*
X836676Y147828D01*
X865632Y147828D01*
X966216Y248412D01*
X966216Y341376D01*
X940308Y367284D01*
X939800Y368300D01*
D17*
X861060Y615696D03*
X754380Y83820D03*
D16*
X262128Y79248D02*
X240792Y79248D01*
X262128Y79248D02*
X275844Y92964D01*
X658368Y92964D01*
X713232Y147828D01*
X740664Y121920D02*
X743712Y121920D01*
X740664Y121920D02*
X714756Y147828D01*
X714756Y423672D02*
X780288Y489204D01*
X714756Y423672D02*
X714756Y147828D01*
X713232Y147828D01*
D17*
X240792Y79248D03*
X713232Y147828D03*
X743712Y121920D03*
X780288Y489204D03*
D16*
X822960Y254508D02*
X822960Y172212D01*
X758952Y108204D01*
X725424Y108204D01*
X720852Y103632D02*
X697992Y103632D01*
X720852Y103632D02*
X725424Y108204D01*
X291084Y298704D02*
X291084Y542544D01*
X291084Y298704D02*
X470916Y118872D01*
D17*
X822960Y254508D03*
X725424Y108204D03*
X697992Y103632D03*
X291084Y542544D03*
X470916Y118872D03*
D16*
X847344Y486156D02*
X847344Y591312D01*
X847344Y486156D02*
X903732Y429768D01*
X903732Y364236D01*
X914400Y353568D01*
X928116Y353568D01*
X938784Y342900D01*
X939800Y342900D01*
X679704Y60960D02*
X647700Y60960D01*
X679704Y60960D02*
X687324Y68580D01*
X827532Y68580D01*
X937260Y178308D01*
D17*
X847344Y591312D03*
X647700Y60960D03*
X937260Y178308D03*
D16*
X838200Y486156D02*
X838200Y548640D01*
X838200Y486156D02*
X842772Y481584D01*
D17*
X838200Y548640D03*
X842772Y481584D03*
X655320Y54864D03*
D16*
X227076Y74676D02*
X217932Y74676D01*
X227076Y74676D02*
X248412Y96012D01*
X603504Y96012D01*
X637032Y129540D01*
X780288Y301752D02*
X780288Y480060D01*
X780288Y301752D02*
X765048Y286512D01*
D17*
X217932Y74676D03*
X637032Y129540D03*
X624840Y59436D03*
X780288Y480060D03*
X765048Y286512D03*
D16*
X853440Y505968D02*
X853440Y509016D01*
X853440Y505968D02*
X914400Y445008D01*
X914400Y444500D01*
X617220Y60960D02*
X560832Y60960D01*
X617220Y60960D02*
X627888Y71628D01*
X733044Y71628D01*
X757428Y96012D01*
X780288Y96012D01*
X835152Y150876D01*
X864108Y150876D01*
X963168Y249936D01*
X963168Y335280D01*
X941832Y356616D01*
X935736Y356616D01*
X925068Y367284D01*
X925068Y432816D01*
X914400Y443484D01*
X914400Y444500D01*
D17*
X853440Y509016D03*
X560832Y60960D03*
D16*
X537972Y102108D02*
X537972Y460248D01*
X710184Y632460D01*
X710184Y640080D01*
D17*
X537972Y102108D03*
X710184Y640080D03*
D16*
X723900Y580644D02*
X667512Y580644D01*
X723900Y580644D02*
X813816Y490728D01*
D17*
X667512Y580644D03*
X813816Y490728D03*
D16*
X839724Y342900D02*
X914400Y342900D01*
X839724Y342900D02*
X806196Y376428D01*
D17*
X806196Y376428D03*
D16*
X755904Y542544D02*
X629412Y542544D01*
X755904Y542544D02*
X794004Y504444D01*
X794004Y356616D01*
X800100Y350520D02*
X821436Y329184D01*
X800100Y350520D02*
X794004Y356616D01*
X821436Y329184D02*
X928116Y329184D01*
X939800Y317500D01*
X806196Y356616D02*
X806196Y367284D01*
X806196Y356616D02*
X800100Y350520D01*
D17*
X629412Y542544D03*
X806196Y367284D03*
D16*
X262128Y62484D02*
X216408Y62484D01*
X195072Y83820D01*
X195072Y478536D01*
X390144Y673608D01*
D17*
X262128Y62484D03*
X390144Y673608D03*
D16*
X269748Y68580D02*
X214884Y68580D01*
X211836Y71628D01*
X211836Y199644D01*
X284988Y272796D01*
X284988Y550164D01*
X408432Y673608D01*
D17*
X269748Y68580D03*
X408432Y673608D03*
D16*
X806196Y277368D02*
X835152Y277368D01*
X862584Y277368D01*
X912876Y227076D01*
X931164Y227076D01*
D17*
X806196Y277368D03*
X835152Y277368D03*
X931164Y227076D03*
D16*
X359664Y77724D02*
X269748Y77724D01*
X359664Y77724D02*
X376428Y60960D01*
X810768Y251460D02*
X819912Y260604D01*
X826008Y260604D01*
X844296Y242316D02*
X850392Y236220D01*
X844296Y242316D02*
X826008Y260604D01*
X850392Y236220D02*
X850392Y166116D01*
X850900Y165100D01*
X778764Y99060D02*
X725424Y99060D01*
X778764Y99060D02*
X844296Y164592D01*
X850392Y164592D01*
X850900Y165100D01*
X809244Y251460D02*
X783336Y277368D01*
X809244Y251460D02*
X810768Y251460D01*
X786384Y280416D02*
X786384Y502920D01*
X786384Y280416D02*
X783336Y277368D01*
X844296Y242316D02*
X845820Y242316D01*
D17*
X269748Y77724D03*
X376428Y60960D03*
X810768Y251460D03*
X725424Y99060D03*
X783336Y277368D03*
X786384Y502920D03*
X845820Y242316D03*
D16*
X854964Y597408D02*
X854964Y630936D01*
X854964Y597408D02*
X854964Y569976D01*
X891540Y667512D02*
X914400Y690372D01*
X891540Y667512D02*
X854964Y630936D01*
X914400Y690372D02*
X914400Y698500D01*
X891540Y667512D02*
X880872Y678180D01*
X853440Y678180D01*
X248412Y318516D02*
X201168Y318516D01*
X733044Y120396D02*
X736092Y120396D01*
X740664Y115824D01*
X757428Y115824D01*
X762000Y120396D01*
X733044Y120396D02*
X714756Y120396D01*
X669036Y83820D02*
X565404Y83820D01*
X688848Y103632D02*
X705612Y120396D01*
X688848Y103632D02*
X669036Y83820D01*
X705612Y120396D02*
X714756Y120396D01*
X539496Y83820D02*
X292608Y83820D01*
X539496Y83820D02*
X541020Y85344D01*
X563880Y85344D01*
X565404Y83820D01*
X714756Y77724D02*
X719328Y77724D01*
X714756Y77724D02*
X688848Y103632D01*
X248412Y245364D02*
X248412Y318516D01*
X844296Y597408D02*
X854964Y597408D01*
X844296Y597408D02*
X832104Y585216D01*
X832104Y411480D01*
X800100Y379476D01*
X800100Y359664D01*
D17*
X854964Y569976D03*
X853440Y678180D03*
X201168Y318516D03*
X248412Y318516D03*
X733044Y120396D03*
X762000Y120396D03*
X714756Y120396D03*
X565404Y83820D03*
X292608Y83820D03*
X719328Y77724D03*
X248412Y245364D03*
X800100Y359664D03*
D16*
X345948Y361188D02*
X345948Y382524D01*
X297180Y431292D02*
X297180Y496824D01*
X297180Y431292D02*
X345948Y382524D01*
X409956Y667512D02*
X882396Y667512D01*
X409956Y667512D02*
X297180Y554736D01*
X297180Y496824D01*
D17*
X345948Y382524D03*
X345948Y361188D03*
X297180Y496824D03*
X882396Y667512D03*
D16*
X928116Y699516D02*
X938784Y699516D01*
X928116Y699516D02*
X917448Y710184D01*
X435864Y710184D01*
X274320Y548640D01*
X274320Y490728D01*
X938784Y699516D02*
X939800Y698500D01*
X278892Y486156D02*
X278892Y391668D01*
X278892Y486156D02*
X274320Y490728D01*
D17*
X274320Y490728D03*
X278892Y391668D03*
D16*
X914400Y292608D02*
X925068Y292608D01*
X938784Y306324D01*
X943356Y306324D01*
X957072Y320040D01*
X914400Y292608D02*
X914400Y292100D01*
D17*
X957072Y320040D03*
D16*
X914400Y596900D02*
X914400Y606552D01*
X900684Y620268D01*
X900684Y667512D01*
D17*
X900684Y667512D03*
D16*
X902208Y278892D02*
X914400Y266700D01*
X826008Y466344D02*
X826008Y533400D01*
X713232Y646176D01*
X397764Y646176D01*
X388620Y637032D01*
D17*
X902208Y278892D03*
X826008Y466344D03*
X388620Y637032D03*
D16*
X914400Y251460D02*
X914400Y241300D01*
X914400Y251460D02*
X928116Y265176D01*
X928116Y269748D01*
X938784Y280416D01*
X943356Y280416D01*
X957072Y294132D01*
D17*
X957072Y294132D03*
D16*
X940308Y547116D02*
X940308Y556260D01*
X954024Y569976D01*
X954024Y725424D01*
X944880Y734568D01*
X124968Y734568D01*
X114300Y723900D01*
X939800Y546100D02*
X940308Y547116D01*
D17*
X114300Y723900D03*
D16*
X914400Y556260D02*
X914400Y546100D01*
X914400Y556260D02*
X928116Y569976D01*
X928116Y676656D01*
X938784Y687324D01*
X943356Y687324D01*
X950976Y694944D01*
X950976Y702564D01*
X940308Y713232D01*
X89916Y713232D01*
X62484Y685800D01*
D17*
X62484Y685800D03*
M02*
