G04 EAGLE Gerber RS-274X export*
G75*
%MOMM*%
%FSLAX34Y34*%
%LPD*%
%IN*%
%IPPOS*%
%AMOC8*
5,1,8,0,0,1.08239X$1,22.5*%
G01*
G04 Define Apertures*
%ADD10C,0.254000*%
D10*
X0Y0D02*
X1000000Y0D01*
X1000000Y800000D01*
X0Y800000D01*
X0Y0D01*
X838950Y101120D02*
X838881Y100161D01*
X838745Y99210D01*
X838541Y98272D01*
X838270Y97350D01*
X837934Y96450D01*
X837535Y95576D01*
X837075Y94733D01*
X836555Y93924D01*
X835979Y93155D01*
X835350Y92429D01*
X834671Y91750D01*
X833945Y91121D01*
X833176Y90545D01*
X832368Y90025D01*
X831524Y89565D01*
X830650Y89166D01*
X829750Y88830D01*
X828828Y88559D01*
X827890Y88355D01*
X826939Y88219D01*
X825980Y88150D01*
X825020Y88150D01*
X824061Y88219D01*
X823110Y88355D01*
X822172Y88559D01*
X821250Y88830D01*
X820350Y89166D01*
X819476Y89565D01*
X818633Y90025D01*
X817824Y90545D01*
X817055Y91121D01*
X816329Y91750D01*
X815650Y92429D01*
X815021Y93155D01*
X814445Y93924D01*
X813925Y94733D01*
X813465Y95576D01*
X813066Y96450D01*
X812730Y97350D01*
X812459Y98272D01*
X812255Y99210D01*
X812119Y100161D01*
X812050Y101120D01*
X812050Y102080D01*
X812119Y103039D01*
X812255Y103990D01*
X812459Y104928D01*
X812730Y105850D01*
X813066Y106750D01*
X813465Y107624D01*
X813925Y108468D01*
X814445Y109276D01*
X815021Y110045D01*
X815650Y110771D01*
X816329Y111450D01*
X817055Y112079D01*
X817824Y112655D01*
X818633Y113175D01*
X819476Y113635D01*
X820350Y114034D01*
X821250Y114370D01*
X822172Y114641D01*
X823110Y114845D01*
X824061Y114981D01*
X825020Y115050D01*
X825980Y115050D01*
X826939Y114981D01*
X827890Y114845D01*
X828828Y114641D01*
X829750Y114370D01*
X830650Y114034D01*
X831524Y113635D01*
X832368Y113175D01*
X833176Y112655D01*
X833945Y112079D01*
X834671Y111450D01*
X835350Y110771D01*
X835979Y110045D01*
X836555Y109276D01*
X837075Y108468D01*
X837535Y107624D01*
X837934Y106750D01*
X838270Y105850D01*
X838541Y104928D01*
X838745Y103990D01*
X838881Y103039D01*
X838950Y102080D01*
X838950Y101120D01*
X965950Y139220D02*
X965881Y138261D01*
X965745Y137310D01*
X965541Y136372D01*
X965270Y135450D01*
X964934Y134550D01*
X964535Y133676D01*
X964075Y132833D01*
X963555Y132024D01*
X962979Y131255D01*
X962350Y130529D01*
X961671Y129850D01*
X960945Y129221D01*
X960176Y128645D01*
X959368Y128125D01*
X958524Y127665D01*
X957650Y127266D01*
X956750Y126930D01*
X955828Y126659D01*
X954890Y126455D01*
X953939Y126319D01*
X952980Y126250D01*
X952020Y126250D01*
X951061Y126319D01*
X950110Y126455D01*
X949172Y126659D01*
X948250Y126930D01*
X947350Y127266D01*
X946476Y127665D01*
X945633Y128125D01*
X944824Y128645D01*
X944055Y129221D01*
X943329Y129850D01*
X942650Y130529D01*
X942021Y131255D01*
X941445Y132024D01*
X940925Y132833D01*
X940465Y133676D01*
X940066Y134550D01*
X939730Y135450D01*
X939459Y136372D01*
X939255Y137310D01*
X939119Y138261D01*
X939050Y139220D01*
X939050Y140180D01*
X939119Y141139D01*
X939255Y142090D01*
X939459Y143028D01*
X939730Y143950D01*
X940066Y144850D01*
X940465Y145724D01*
X940925Y146568D01*
X941445Y147376D01*
X942021Y148145D01*
X942650Y148871D01*
X943329Y149550D01*
X944055Y150179D01*
X944824Y150755D01*
X945633Y151275D01*
X946476Y151735D01*
X947350Y152134D01*
X948250Y152470D01*
X949172Y152741D01*
X950110Y152945D01*
X951061Y153081D01*
X952020Y153150D01*
X952980Y153150D01*
X953939Y153081D01*
X954890Y152945D01*
X955828Y152741D01*
X956750Y152470D01*
X957650Y152134D01*
X958524Y151735D01*
X959368Y151275D01*
X960176Y150755D01*
X960945Y150179D01*
X961671Y149550D01*
X962350Y148871D01*
X962979Y148145D01*
X963555Y147376D01*
X964075Y146568D01*
X964535Y145724D01*
X964934Y144850D01*
X965270Y143950D01*
X965541Y143028D01*
X965745Y142090D01*
X965881Y141139D01*
X965950Y140180D01*
X965950Y139220D01*
X965950Y63020D02*
X965881Y62061D01*
X965745Y61110D01*
X965541Y60172D01*
X965270Y59250D01*
X964934Y58350D01*
X964535Y57476D01*
X964075Y56633D01*
X963555Y55824D01*
X962979Y55055D01*
X962350Y54329D01*
X961671Y53650D01*
X960945Y53021D01*
X960176Y52445D01*
X959368Y51925D01*
X958524Y51465D01*
X957650Y51066D01*
X956750Y50730D01*
X955828Y50459D01*
X954890Y50255D01*
X953939Y50119D01*
X952980Y50050D01*
X952020Y50050D01*
X951061Y50119D01*
X950110Y50255D01*
X949172Y50459D01*
X948250Y50730D01*
X947350Y51066D01*
X946476Y51465D01*
X945633Y51925D01*
X944824Y52445D01*
X944055Y53021D01*
X943329Y53650D01*
X942650Y54329D01*
X942021Y55055D01*
X941445Y55824D01*
X940925Y56633D01*
X940465Y57476D01*
X940066Y58350D01*
X939730Y59250D01*
X939459Y60172D01*
X939255Y61110D01*
X939119Y62061D01*
X939050Y63020D01*
X939050Y63980D01*
X939119Y64939D01*
X939255Y65890D01*
X939459Y66828D01*
X939730Y67750D01*
X940066Y68650D01*
X940465Y69524D01*
X940925Y70368D01*
X941445Y71176D01*
X942021Y71945D01*
X942650Y72671D01*
X943329Y73350D01*
X944055Y73979D01*
X944824Y74555D01*
X945633Y75075D01*
X946476Y75535D01*
X947350Y75934D01*
X948250Y76270D01*
X949172Y76541D01*
X950110Y76745D01*
X951061Y76881D01*
X952020Y76950D01*
X952980Y76950D01*
X953939Y76881D01*
X954890Y76745D01*
X955828Y76541D01*
X956750Y76270D01*
X957650Y75934D01*
X958524Y75535D01*
X959368Y75075D01*
X960176Y74555D01*
X960945Y73979D01*
X961671Y73350D01*
X962350Y72671D01*
X962979Y71945D01*
X963555Y71176D01*
X964075Y70368D01*
X964535Y69524D01*
X964934Y68650D01*
X965270Y67750D01*
X965541Y66828D01*
X965745Y65890D01*
X965881Y64939D01*
X965950Y63980D01*
X965950Y63020D01*
X46600Y113929D02*
X46535Y113189D01*
X46406Y112459D01*
X46214Y111742D01*
X45960Y111044D01*
X45647Y110371D01*
X45276Y109729D01*
X44850Y109121D01*
X44373Y108552D01*
X43848Y108027D01*
X43279Y107550D01*
X42671Y107124D01*
X42029Y106753D01*
X41356Y106440D01*
X40658Y106186D01*
X39942Y105994D01*
X39211Y105865D01*
X38471Y105800D01*
X37729Y105800D01*
X36989Y105865D01*
X36259Y105994D01*
X35542Y106186D01*
X34844Y106440D01*
X34171Y106753D01*
X33529Y107124D01*
X32921Y107550D01*
X32352Y108027D01*
X31827Y108552D01*
X31350Y109121D01*
X30924Y109729D01*
X30553Y110371D01*
X30240Y111044D01*
X29986Y111742D01*
X29794Y112459D01*
X29665Y113189D01*
X29600Y113929D01*
X29600Y114671D01*
X29665Y115411D01*
X29794Y116142D01*
X29986Y116858D01*
X30240Y117556D01*
X30553Y118229D01*
X30924Y118871D01*
X31350Y119479D01*
X31827Y120048D01*
X32352Y120573D01*
X32921Y121050D01*
X33529Y121476D01*
X34171Y121847D01*
X34844Y122160D01*
X35542Y122414D01*
X36259Y122606D01*
X36989Y122735D01*
X37729Y122800D01*
X38471Y122800D01*
X39211Y122735D01*
X39942Y122606D01*
X40658Y122414D01*
X41356Y122160D01*
X42029Y121847D01*
X42671Y121476D01*
X43279Y121050D01*
X43848Y120573D01*
X44373Y120048D01*
X44850Y119479D01*
X45276Y118871D01*
X45647Y118229D01*
X45960Y117556D01*
X46214Y116858D01*
X46406Y116142D01*
X46535Y115411D01*
X46600Y114671D01*
X46600Y113929D01*
X116600Y113929D02*
X116535Y113189D01*
X116406Y112459D01*
X116214Y111742D01*
X115960Y111044D01*
X115647Y110371D01*
X115276Y109729D01*
X114850Y109121D01*
X114373Y108552D01*
X113848Y108027D01*
X113279Y107550D01*
X112671Y107124D01*
X112029Y106753D01*
X111356Y106440D01*
X110658Y106186D01*
X109942Y105994D01*
X109211Y105865D01*
X108471Y105800D01*
X107729Y105800D01*
X106989Y105865D01*
X106259Y105994D01*
X105542Y106186D01*
X104844Y106440D01*
X104171Y106753D01*
X103529Y107124D01*
X102921Y107550D01*
X102352Y108027D01*
X101827Y108552D01*
X101350Y109121D01*
X100924Y109729D01*
X100553Y110371D01*
X100240Y111044D01*
X99986Y111742D01*
X99794Y112459D01*
X99665Y113189D01*
X99600Y113929D01*
X99600Y114671D01*
X99665Y115411D01*
X99794Y116142D01*
X99986Y116858D01*
X100240Y117556D01*
X100553Y118229D01*
X100924Y118871D01*
X101350Y119479D01*
X101827Y120048D01*
X102352Y120573D01*
X102921Y121050D01*
X103529Y121476D01*
X104171Y121847D01*
X104844Y122160D01*
X105542Y122414D01*
X106259Y122606D01*
X106989Y122735D01*
X107729Y122800D01*
X108471Y122800D01*
X109211Y122735D01*
X109942Y122606D01*
X110658Y122414D01*
X111356Y122160D01*
X112029Y121847D01*
X112671Y121476D01*
X113279Y121050D01*
X113848Y120573D01*
X114373Y120048D01*
X114850Y119479D01*
X115276Y118871D01*
X115647Y118229D01*
X115960Y117556D01*
X116214Y116858D01*
X116406Y116142D01*
X116535Y115411D01*
X116600Y114671D01*
X116600Y113929D01*
M02*
