G04 EAGLE Gerber RS-274X export*
G75*
%MOMM*%
%FSLAX34Y34*%
%LPD*%
%INSoldermask Bottom*%
%IPPOS*%
%AMOC8*
5,1,8,0,0,1.08239X$1,22.5*%
G01*
G04 Define Apertures*
%ADD10R,1.441200X1.441200*%
%ADD11C,1.441200*%
%ADD12C,1.599000*%
%ADD13C,2.393200*%
%ADD14C,2.423200*%
%ADD15C,2.893200*%
%ADD16C,1.903200*%
%ADD17C,1.591200*%
%ADD18C,1.721969*%
%ADD19C,0.959600*%
D10*
X403040Y215900D03*
D11*
X485960Y215900D03*
D10*
X485960Y254000D03*
D11*
X403040Y254000D03*
D12*
X817505Y101600D02*
X817507Y101796D01*
X817515Y101992D01*
X817527Y102188D01*
X817543Y102384D01*
X817565Y102579D01*
X817592Y102773D01*
X817623Y102967D01*
X817659Y103160D01*
X817699Y103352D01*
X817745Y103543D01*
X817795Y103732D01*
X817849Y103921D01*
X817909Y104108D01*
X817972Y104293D01*
X818041Y104477D01*
X818114Y104660D01*
X818191Y104840D01*
X818273Y105018D01*
X818359Y105195D01*
X818449Y105369D01*
X818544Y105541D01*
X818642Y105710D01*
X818745Y105877D01*
X818852Y106042D01*
X818963Y106204D01*
X819078Y106363D01*
X819197Y106519D01*
X819320Y106672D01*
X819446Y106822D01*
X819576Y106969D01*
X819710Y107113D01*
X819847Y107253D01*
X819987Y107390D01*
X820131Y107524D01*
X820278Y107654D01*
X820428Y107780D01*
X820581Y107903D01*
X820737Y108022D01*
X820896Y108137D01*
X821058Y108248D01*
X821223Y108355D01*
X821390Y108458D01*
X821559Y108556D01*
X821731Y108651D01*
X821905Y108741D01*
X822082Y108827D01*
X822260Y108909D01*
X822440Y108986D01*
X822623Y109059D01*
X822807Y109128D01*
X822992Y109191D01*
X823179Y109251D01*
X823368Y109305D01*
X823557Y109355D01*
X823748Y109401D01*
X823940Y109441D01*
X824133Y109477D01*
X824327Y109508D01*
X824521Y109535D01*
X824716Y109557D01*
X824912Y109573D01*
X825108Y109585D01*
X825304Y109593D01*
X825500Y109595D01*
X825696Y109593D01*
X825892Y109585D01*
X826088Y109573D01*
X826284Y109557D01*
X826479Y109535D01*
X826673Y109508D01*
X826867Y109477D01*
X827060Y109441D01*
X827252Y109401D01*
X827443Y109355D01*
X827632Y109305D01*
X827821Y109251D01*
X828008Y109191D01*
X828193Y109128D01*
X828377Y109059D01*
X828560Y108986D01*
X828740Y108909D01*
X828918Y108827D01*
X829095Y108741D01*
X829269Y108651D01*
X829441Y108556D01*
X829610Y108458D01*
X829777Y108355D01*
X829942Y108248D01*
X830104Y108137D01*
X830263Y108022D01*
X830419Y107903D01*
X830572Y107780D01*
X830722Y107654D01*
X830869Y107524D01*
X831013Y107390D01*
X831153Y107253D01*
X831290Y107113D01*
X831424Y106969D01*
X831554Y106822D01*
X831680Y106672D01*
X831803Y106519D01*
X831922Y106363D01*
X832037Y106204D01*
X832148Y106042D01*
X832255Y105877D01*
X832358Y105710D01*
X832456Y105541D01*
X832551Y105369D01*
X832641Y105195D01*
X832727Y105018D01*
X832809Y104840D01*
X832886Y104660D01*
X832959Y104477D01*
X833028Y104293D01*
X833091Y104108D01*
X833151Y103921D01*
X833205Y103732D01*
X833255Y103543D01*
X833301Y103352D01*
X833341Y103160D01*
X833377Y102967D01*
X833408Y102773D01*
X833435Y102579D01*
X833457Y102384D01*
X833473Y102188D01*
X833485Y101992D01*
X833493Y101796D01*
X833495Y101600D01*
X833493Y101404D01*
X833485Y101208D01*
X833473Y101012D01*
X833457Y100816D01*
X833435Y100621D01*
X833408Y100427D01*
X833377Y100233D01*
X833341Y100040D01*
X833301Y99848D01*
X833255Y99657D01*
X833205Y99468D01*
X833151Y99279D01*
X833091Y99092D01*
X833028Y98907D01*
X832959Y98723D01*
X832886Y98540D01*
X832809Y98360D01*
X832727Y98182D01*
X832641Y98005D01*
X832551Y97831D01*
X832456Y97659D01*
X832358Y97490D01*
X832255Y97323D01*
X832148Y97158D01*
X832037Y96996D01*
X831922Y96837D01*
X831803Y96681D01*
X831680Y96528D01*
X831554Y96378D01*
X831424Y96231D01*
X831290Y96087D01*
X831153Y95947D01*
X831013Y95810D01*
X830869Y95676D01*
X830722Y95546D01*
X830572Y95420D01*
X830419Y95297D01*
X830263Y95178D01*
X830104Y95063D01*
X829942Y94952D01*
X829777Y94845D01*
X829610Y94742D01*
X829441Y94644D01*
X829269Y94549D01*
X829095Y94459D01*
X828918Y94373D01*
X828740Y94291D01*
X828560Y94214D01*
X828377Y94141D01*
X828193Y94072D01*
X828008Y94009D01*
X827821Y93949D01*
X827632Y93895D01*
X827443Y93845D01*
X827252Y93799D01*
X827060Y93759D01*
X826867Y93723D01*
X826673Y93692D01*
X826479Y93665D01*
X826284Y93643D01*
X826088Y93627D01*
X825892Y93615D01*
X825696Y93607D01*
X825500Y93605D01*
X825304Y93607D01*
X825108Y93615D01*
X824912Y93627D01*
X824716Y93643D01*
X824521Y93665D01*
X824327Y93692D01*
X824133Y93723D01*
X823940Y93759D01*
X823748Y93799D01*
X823557Y93845D01*
X823368Y93895D01*
X823179Y93949D01*
X822992Y94009D01*
X822807Y94072D01*
X822623Y94141D01*
X822440Y94214D01*
X822260Y94291D01*
X822082Y94373D01*
X821905Y94459D01*
X821731Y94549D01*
X821559Y94644D01*
X821390Y94742D01*
X821223Y94845D01*
X821058Y94952D01*
X820896Y95063D01*
X820737Y95178D01*
X820581Y95297D01*
X820428Y95420D01*
X820278Y95546D01*
X820131Y95676D01*
X819987Y95810D01*
X819847Y95947D01*
X819710Y96087D01*
X819576Y96231D01*
X819446Y96378D01*
X819320Y96528D01*
X819197Y96681D01*
X819078Y96837D01*
X818963Y96996D01*
X818852Y97158D01*
X818745Y97323D01*
X818642Y97490D01*
X818544Y97659D01*
X818449Y97831D01*
X818359Y98005D01*
X818273Y98182D01*
X818191Y98360D01*
X818114Y98540D01*
X818041Y98723D01*
X817972Y98907D01*
X817909Y99092D01*
X817849Y99279D01*
X817795Y99468D01*
X817745Y99657D01*
X817699Y99848D01*
X817659Y100040D01*
X817623Y100233D01*
X817592Y100427D01*
X817565Y100621D01*
X817543Y100816D01*
X817527Y101012D01*
X817515Y101208D01*
X817507Y101404D01*
X817505Y101600D01*
X944505Y139700D02*
X944507Y139896D01*
X944515Y140092D01*
X944527Y140288D01*
X944543Y140484D01*
X944565Y140679D01*
X944592Y140873D01*
X944623Y141067D01*
X944659Y141260D01*
X944699Y141452D01*
X944745Y141643D01*
X944795Y141832D01*
X944849Y142021D01*
X944909Y142208D01*
X944972Y142393D01*
X945041Y142577D01*
X945114Y142760D01*
X945191Y142940D01*
X945273Y143118D01*
X945359Y143295D01*
X945449Y143469D01*
X945544Y143641D01*
X945642Y143810D01*
X945745Y143977D01*
X945852Y144142D01*
X945963Y144304D01*
X946078Y144463D01*
X946197Y144619D01*
X946320Y144772D01*
X946446Y144922D01*
X946576Y145069D01*
X946710Y145213D01*
X946847Y145353D01*
X946987Y145490D01*
X947131Y145624D01*
X947278Y145754D01*
X947428Y145880D01*
X947581Y146003D01*
X947737Y146122D01*
X947896Y146237D01*
X948058Y146348D01*
X948223Y146455D01*
X948390Y146558D01*
X948559Y146656D01*
X948731Y146751D01*
X948905Y146841D01*
X949082Y146927D01*
X949260Y147009D01*
X949440Y147086D01*
X949623Y147159D01*
X949807Y147228D01*
X949992Y147291D01*
X950179Y147351D01*
X950368Y147405D01*
X950557Y147455D01*
X950748Y147501D01*
X950940Y147541D01*
X951133Y147577D01*
X951327Y147608D01*
X951521Y147635D01*
X951716Y147657D01*
X951912Y147673D01*
X952108Y147685D01*
X952304Y147693D01*
X952500Y147695D01*
X952696Y147693D01*
X952892Y147685D01*
X953088Y147673D01*
X953284Y147657D01*
X953479Y147635D01*
X953673Y147608D01*
X953867Y147577D01*
X954060Y147541D01*
X954252Y147501D01*
X954443Y147455D01*
X954632Y147405D01*
X954821Y147351D01*
X955008Y147291D01*
X955193Y147228D01*
X955377Y147159D01*
X955560Y147086D01*
X955740Y147009D01*
X955918Y146927D01*
X956095Y146841D01*
X956269Y146751D01*
X956441Y146656D01*
X956610Y146558D01*
X956777Y146455D01*
X956942Y146348D01*
X957104Y146237D01*
X957263Y146122D01*
X957419Y146003D01*
X957572Y145880D01*
X957722Y145754D01*
X957869Y145624D01*
X958013Y145490D01*
X958153Y145353D01*
X958290Y145213D01*
X958424Y145069D01*
X958554Y144922D01*
X958680Y144772D01*
X958803Y144619D01*
X958922Y144463D01*
X959037Y144304D01*
X959148Y144142D01*
X959255Y143977D01*
X959358Y143810D01*
X959456Y143641D01*
X959551Y143469D01*
X959641Y143295D01*
X959727Y143118D01*
X959809Y142940D01*
X959886Y142760D01*
X959959Y142577D01*
X960028Y142393D01*
X960091Y142208D01*
X960151Y142021D01*
X960205Y141832D01*
X960255Y141643D01*
X960301Y141452D01*
X960341Y141260D01*
X960377Y141067D01*
X960408Y140873D01*
X960435Y140679D01*
X960457Y140484D01*
X960473Y140288D01*
X960485Y140092D01*
X960493Y139896D01*
X960495Y139700D01*
X960493Y139504D01*
X960485Y139308D01*
X960473Y139112D01*
X960457Y138916D01*
X960435Y138721D01*
X960408Y138527D01*
X960377Y138333D01*
X960341Y138140D01*
X960301Y137948D01*
X960255Y137757D01*
X960205Y137568D01*
X960151Y137379D01*
X960091Y137192D01*
X960028Y137007D01*
X959959Y136823D01*
X959886Y136640D01*
X959809Y136460D01*
X959727Y136282D01*
X959641Y136105D01*
X959551Y135931D01*
X959456Y135759D01*
X959358Y135590D01*
X959255Y135423D01*
X959148Y135258D01*
X959037Y135096D01*
X958922Y134937D01*
X958803Y134781D01*
X958680Y134628D01*
X958554Y134478D01*
X958424Y134331D01*
X958290Y134187D01*
X958153Y134047D01*
X958013Y133910D01*
X957869Y133776D01*
X957722Y133646D01*
X957572Y133520D01*
X957419Y133397D01*
X957263Y133278D01*
X957104Y133163D01*
X956942Y133052D01*
X956777Y132945D01*
X956610Y132842D01*
X956441Y132744D01*
X956269Y132649D01*
X956095Y132559D01*
X955918Y132473D01*
X955740Y132391D01*
X955560Y132314D01*
X955377Y132241D01*
X955193Y132172D01*
X955008Y132109D01*
X954821Y132049D01*
X954632Y131995D01*
X954443Y131945D01*
X954252Y131899D01*
X954060Y131859D01*
X953867Y131823D01*
X953673Y131792D01*
X953479Y131765D01*
X953284Y131743D01*
X953088Y131727D01*
X952892Y131715D01*
X952696Y131707D01*
X952500Y131705D01*
X952304Y131707D01*
X952108Y131715D01*
X951912Y131727D01*
X951716Y131743D01*
X951521Y131765D01*
X951327Y131792D01*
X951133Y131823D01*
X950940Y131859D01*
X950748Y131899D01*
X950557Y131945D01*
X950368Y131995D01*
X950179Y132049D01*
X949992Y132109D01*
X949807Y132172D01*
X949623Y132241D01*
X949440Y132314D01*
X949260Y132391D01*
X949082Y132473D01*
X948905Y132559D01*
X948731Y132649D01*
X948559Y132744D01*
X948390Y132842D01*
X948223Y132945D01*
X948058Y133052D01*
X947896Y133163D01*
X947737Y133278D01*
X947581Y133397D01*
X947428Y133520D01*
X947278Y133646D01*
X947131Y133776D01*
X946987Y133910D01*
X946847Y134047D01*
X946710Y134187D01*
X946576Y134331D01*
X946446Y134478D01*
X946320Y134628D01*
X946197Y134781D01*
X946078Y134937D01*
X945963Y135096D01*
X945852Y135258D01*
X945745Y135423D01*
X945642Y135590D01*
X945544Y135759D01*
X945449Y135931D01*
X945359Y136105D01*
X945273Y136282D01*
X945191Y136460D01*
X945114Y136640D01*
X945041Y136823D01*
X944972Y137007D01*
X944909Y137192D01*
X944849Y137379D01*
X944795Y137568D01*
X944745Y137757D01*
X944699Y137948D01*
X944659Y138140D01*
X944623Y138333D01*
X944592Y138527D01*
X944565Y138721D01*
X944543Y138916D01*
X944527Y139112D01*
X944515Y139308D01*
X944507Y139504D01*
X944505Y139700D01*
X944505Y63500D02*
X944507Y63696D01*
X944515Y63892D01*
X944527Y64088D01*
X944543Y64284D01*
X944565Y64479D01*
X944592Y64673D01*
X944623Y64867D01*
X944659Y65060D01*
X944699Y65252D01*
X944745Y65443D01*
X944795Y65632D01*
X944849Y65821D01*
X944909Y66008D01*
X944972Y66193D01*
X945041Y66377D01*
X945114Y66560D01*
X945191Y66740D01*
X945273Y66918D01*
X945359Y67095D01*
X945449Y67269D01*
X945544Y67441D01*
X945642Y67610D01*
X945745Y67777D01*
X945852Y67942D01*
X945963Y68104D01*
X946078Y68263D01*
X946197Y68419D01*
X946320Y68572D01*
X946446Y68722D01*
X946576Y68869D01*
X946710Y69013D01*
X946847Y69153D01*
X946987Y69290D01*
X947131Y69424D01*
X947278Y69554D01*
X947428Y69680D01*
X947581Y69803D01*
X947737Y69922D01*
X947896Y70037D01*
X948058Y70148D01*
X948223Y70255D01*
X948390Y70358D01*
X948559Y70456D01*
X948731Y70551D01*
X948905Y70641D01*
X949082Y70727D01*
X949260Y70809D01*
X949440Y70886D01*
X949623Y70959D01*
X949807Y71028D01*
X949992Y71091D01*
X950179Y71151D01*
X950368Y71205D01*
X950557Y71255D01*
X950748Y71301D01*
X950940Y71341D01*
X951133Y71377D01*
X951327Y71408D01*
X951521Y71435D01*
X951716Y71457D01*
X951912Y71473D01*
X952108Y71485D01*
X952304Y71493D01*
X952500Y71495D01*
X952696Y71493D01*
X952892Y71485D01*
X953088Y71473D01*
X953284Y71457D01*
X953479Y71435D01*
X953673Y71408D01*
X953867Y71377D01*
X954060Y71341D01*
X954252Y71301D01*
X954443Y71255D01*
X954632Y71205D01*
X954821Y71151D01*
X955008Y71091D01*
X955193Y71028D01*
X955377Y70959D01*
X955560Y70886D01*
X955740Y70809D01*
X955918Y70727D01*
X956095Y70641D01*
X956269Y70551D01*
X956441Y70456D01*
X956610Y70358D01*
X956777Y70255D01*
X956942Y70148D01*
X957104Y70037D01*
X957263Y69922D01*
X957419Y69803D01*
X957572Y69680D01*
X957722Y69554D01*
X957869Y69424D01*
X958013Y69290D01*
X958153Y69153D01*
X958290Y69013D01*
X958424Y68869D01*
X958554Y68722D01*
X958680Y68572D01*
X958803Y68419D01*
X958922Y68263D01*
X959037Y68104D01*
X959148Y67942D01*
X959255Y67777D01*
X959358Y67610D01*
X959456Y67441D01*
X959551Y67269D01*
X959641Y67095D01*
X959727Y66918D01*
X959809Y66740D01*
X959886Y66560D01*
X959959Y66377D01*
X960028Y66193D01*
X960091Y66008D01*
X960151Y65821D01*
X960205Y65632D01*
X960255Y65443D01*
X960301Y65252D01*
X960341Y65060D01*
X960377Y64867D01*
X960408Y64673D01*
X960435Y64479D01*
X960457Y64284D01*
X960473Y64088D01*
X960485Y63892D01*
X960493Y63696D01*
X960495Y63500D01*
X960493Y63304D01*
X960485Y63108D01*
X960473Y62912D01*
X960457Y62716D01*
X960435Y62521D01*
X960408Y62327D01*
X960377Y62133D01*
X960341Y61940D01*
X960301Y61748D01*
X960255Y61557D01*
X960205Y61368D01*
X960151Y61179D01*
X960091Y60992D01*
X960028Y60807D01*
X959959Y60623D01*
X959886Y60440D01*
X959809Y60260D01*
X959727Y60082D01*
X959641Y59905D01*
X959551Y59731D01*
X959456Y59559D01*
X959358Y59390D01*
X959255Y59223D01*
X959148Y59058D01*
X959037Y58896D01*
X958922Y58737D01*
X958803Y58581D01*
X958680Y58428D01*
X958554Y58278D01*
X958424Y58131D01*
X958290Y57987D01*
X958153Y57847D01*
X958013Y57710D01*
X957869Y57576D01*
X957722Y57446D01*
X957572Y57320D01*
X957419Y57197D01*
X957263Y57078D01*
X957104Y56963D01*
X956942Y56852D01*
X956777Y56745D01*
X956610Y56642D01*
X956441Y56544D01*
X956269Y56449D01*
X956095Y56359D01*
X955918Y56273D01*
X955740Y56191D01*
X955560Y56114D01*
X955377Y56041D01*
X955193Y55972D01*
X955008Y55909D01*
X954821Y55849D01*
X954632Y55795D01*
X954443Y55745D01*
X954252Y55699D01*
X954060Y55659D01*
X953867Y55623D01*
X953673Y55592D01*
X953479Y55565D01*
X953284Y55543D01*
X953088Y55527D01*
X952892Y55515D01*
X952696Y55507D01*
X952500Y55505D01*
X952304Y55507D01*
X952108Y55515D01*
X951912Y55527D01*
X951716Y55543D01*
X951521Y55565D01*
X951327Y55592D01*
X951133Y55623D01*
X950940Y55659D01*
X950748Y55699D01*
X950557Y55745D01*
X950368Y55795D01*
X950179Y55849D01*
X949992Y55909D01*
X949807Y55972D01*
X949623Y56041D01*
X949440Y56114D01*
X949260Y56191D01*
X949082Y56273D01*
X948905Y56359D01*
X948731Y56449D01*
X948559Y56544D01*
X948390Y56642D01*
X948223Y56745D01*
X948058Y56852D01*
X947896Y56963D01*
X947737Y57078D01*
X947581Y57197D01*
X947428Y57320D01*
X947278Y57446D01*
X947131Y57576D01*
X946987Y57710D01*
X946847Y57847D01*
X946710Y57987D01*
X946576Y58131D01*
X946446Y58278D01*
X946320Y58428D01*
X946197Y58581D01*
X946078Y58737D01*
X945963Y58896D01*
X945852Y59058D01*
X945745Y59223D01*
X945642Y59390D01*
X945544Y59559D01*
X945449Y59731D01*
X945359Y59905D01*
X945273Y60082D01*
X945191Y60260D01*
X945114Y60440D01*
X945041Y60623D01*
X944972Y60807D01*
X944909Y60992D01*
X944849Y61179D01*
X944795Y61368D01*
X944745Y61557D01*
X944699Y61748D01*
X944659Y61940D01*
X944623Y62133D01*
X944592Y62327D01*
X944565Y62521D01*
X944543Y62716D01*
X944527Y62912D01*
X944515Y63108D01*
X944507Y63304D01*
X944505Y63500D01*
D13*
X977900Y101600D03*
D14*
X850900Y165100D03*
D15*
X825500Y101600D03*
X952500Y139700D03*
X952500Y63500D03*
D16*
X38100Y114300D03*
X108100Y114300D03*
D10*
X508000Y533400D03*
D11*
X495300Y546100D03*
X482600Y533400D03*
D17*
X571500Y532760D02*
X571500Y546640D01*
X584200Y546640D02*
X584200Y532760D01*
X596900Y532760D02*
X596900Y546640D01*
D18*
X939800Y723900D03*
X914400Y723900D03*
X939800Y698500D03*
X914400Y698500D03*
X939800Y673100D03*
X914400Y673100D03*
X939800Y647700D03*
X914400Y647700D03*
X939800Y622300D03*
X914400Y622300D03*
X939800Y596900D03*
X914400Y596900D03*
X939800Y571500D03*
X914400Y571500D03*
X939800Y546100D03*
X914400Y546100D03*
X939800Y520700D03*
X914400Y520700D03*
X939800Y495300D03*
X914400Y495300D03*
X939800Y469900D03*
X914400Y469900D03*
X939800Y444500D03*
X914400Y444500D03*
X939800Y419100D03*
X914400Y419100D03*
X939800Y393700D03*
X914400Y393700D03*
X939800Y368300D03*
X914400Y368300D03*
X939800Y342900D03*
X914400Y342900D03*
X939800Y317500D03*
X914400Y317500D03*
X939800Y292100D03*
X914400Y292100D03*
X939800Y266700D03*
X914400Y266700D03*
X939800Y241300D03*
X914400Y241300D03*
D19*
X348996Y254508D03*
X519684Y48768D03*
X544068Y79248D03*
X685800Y57912D03*
X647700Y48768D03*
X429768Y524256D03*
X861060Y615696D03*
X754380Y83820D03*
X240792Y79248D03*
X713232Y147828D03*
X743712Y121920D03*
X780288Y489204D03*
X822960Y254508D03*
X725424Y108204D03*
X697992Y103632D03*
X291084Y542544D03*
X470916Y118872D03*
X847344Y591312D03*
X647700Y60960D03*
X937260Y178308D03*
X838200Y548640D03*
X842772Y481584D03*
X655320Y54864D03*
X217932Y74676D03*
X637032Y129540D03*
X624840Y59436D03*
X780288Y480060D03*
X765048Y286512D03*
X853440Y509016D03*
X560832Y60960D03*
X537972Y102108D03*
X710184Y640080D03*
X667512Y580644D03*
X813816Y490728D03*
X806196Y376428D03*
X629412Y542544D03*
X806196Y367284D03*
X262128Y62484D03*
X390144Y673608D03*
X269748Y68580D03*
X408432Y673608D03*
X806196Y277368D03*
X835152Y277368D03*
X931164Y227076D03*
X269748Y77724D03*
X376428Y60960D03*
X810768Y251460D03*
X725424Y99060D03*
X783336Y277368D03*
X786384Y502920D03*
X845820Y242316D03*
X854964Y569976D03*
X853440Y678180D03*
X201168Y318516D03*
X248412Y318516D03*
X733044Y120396D03*
X762000Y120396D03*
X714756Y120396D03*
X565404Y83820D03*
X292608Y83820D03*
X719328Y77724D03*
X248412Y245364D03*
X800100Y359664D03*
X345948Y382524D03*
X345948Y361188D03*
X297180Y496824D03*
X882396Y667512D03*
X274320Y490728D03*
X278892Y391668D03*
X957072Y320040D03*
X900684Y667512D03*
X902208Y278892D03*
X826008Y466344D03*
X388620Y637032D03*
X957072Y294132D03*
X114300Y723900D03*
X62484Y685800D03*
M02*
